<svg width="520" height="520" viewBox="0 0 520 520" fill="none" xmlns="http://www.w3.org/2000/svg">
<path d="M520 260C520 403.717 403.717 520 260 520C116.283 520 0 403.717 0 260C0 116.283 116.283 0 260 0C373.417 0 469.638 72.4724 505.26 173.606C513.039 195.307 517.543 218.236 519.181 241.984C520 248.126 520 253.858 520 260Z" fill="#90DFAA"/>
<path d="M308.724 187.937L304.63 291.118H215.37L211.276 187.937L260 164.189L308.724 187.937Z" fill="#E6E9EE"/>
<path d="M260 208C277.186 208 291.118 193.885 291.118 176.472C291.118 159.06 277.186 144.945 260 144.945C242.814 144.945 228.882 159.06 228.882 176.472C228.882 193.885 242.814 208 260 208Z" fill="#ECD2AC"/>
<path d="M273.102 208H246.898L251.811 223.15H268.189L273.102 208Z" fill="#F1543F"/>
<path d="M277.606 291.118H242.394L251.811 223.15H268.189L277.606 291.118Z" fill="#FF7058"/>
<path d="M341.071 262.047L341.89 275.559C341.89 278.425 344.756 280.882 347.622 280.882C347.622 280.882 347.622 280.882 348.031 280.882C348.441 284.567 349.26 287.842 349.669 291.118H280.063C286.614 270.236 290.709 250.992 293.165 234.205C293.575 235.024 302.173 202.268 297.26 182.205L357.858 211.685L358.268 214.551C352.535 219.055 348.85 225.197 348.031 233.386C347.213 241.575 346.803 249.354 346.803 256.315H346.394C343.118 256.315 340.661 258.772 341.071 262.047Z" fill="#2B3B4E"/>
<path d="M178.929 262.047C178.929 258.772 176.472 256.724 173.606 256.724H173.197C173.197 249.764 172.787 241.984 171.969 233.795C171.15 225.606 167.055 219.465 161.732 214.961L162.142 212.094L222.74 182.205C218.236 201.449 226.425 232.976 226.835 233.795C229.291 250.583 233.386 269.827 239.937 290.709H170.331C171.15 287.433 171.559 284.157 171.969 280.472C171.969 280.472 171.968 280.472 172.378 280.472C175.244 280.472 178.11 278.016 178.11 275.15L178.929 262.047Z" fill="#2B3B4E"/>
<path d="M290.299 169.921C290.299 169.921 294.394 191.622 260 208C260 208 285.386 210.047 293.165 233.795C293.165 235.024 307.087 182.614 290.299 169.921Z" fill="white"/>
<path d="M229.701 169.921C229.701 169.921 225.606 191.622 260 208C260 208 234.614 210.047 226.835 233.795C226.835 235.024 212.913 182.614 229.701 169.921Z" fill="white"/>
<path d="M310.772 111.78C310.772 144.945 288.252 185.89 260 185.89C232.157 185.89 209.228 144.945 209.228 111.78C209.228 78.6142 231.748 65.5118 260 65.5118C287.843 65.5118 310.772 78.6142 310.772 111.78Z" fill="#ECD2AC"/>
<path d="M242.394 58.5512C242.394 58.5512 283.339 42.1733 304.221 79.4331C326.74 119.15 298.488 162.142 292.756 165.827C292.756 165.827 294.394 158.866 298.488 145.764C298.488 145.764 308.315 116.283 278.425 111.78C278.425 111.78 249.354 107.685 246.898 101.543C246.898 101.543 248.945 112.189 262.047 114.236C262.047 114.236 232.158 113.417 222.74 102.772C222.74 102.772 210.047 144.945 228.472 167.874C228.472 167.874 196.126 142.079 200.22 101.953C200.63 102.362 198.992 47.4961 242.394 58.5512Z" fill="#324A5E"/>
<path d="M2.04726 291.118C17.1969 420.095 126.929 520 260 520C393.071 520 502.803 420.095 517.953 291.118H2.04726Z" fill="#2C9984"/>
<path d="M172.378 280.472C169.512 280.472 167.055 278.016 167.055 275.15L167.874 261.638C167.874 258.772 170.74 256.315 174.016 256.315C177.291 256.315 179.339 258.772 179.339 261.638L178.11 275.15C178.11 278.425 175.244 280.472 172.378 280.472Z" fill="#ECD2AC"/>
<path d="M73.7008 280.472C70.4252 280.472 67.9685 278.016 67.5591 275.15L66.7402 261.638C66.7402 258.772 68.7874 256.315 72.063 256.315H72.4724C72.4724 265.323 72.8819 273.512 73.7008 280.472Z" fill="#ECD2AC"/>
<path d="M157.228 349.26C158.047 346.394 158.457 343.528 158.457 340.252C158.457 320.598 142.488 304.63 123.244 304.63C103.591 304.63 88.0315 320.598 88.0315 340.252C88.0315 343.528 88.4409 346.394 89.2598 349.26H157.228Z" fill="#ECD2AC"/>
<path d="M171.969 233.386C169.512 208.819 138.803 202.268 123.244 202.268C123.244 202.268 123.244 202.268 122.835 202.268C122.835 202.268 122.835 202.268 122.425 202.268C106.866 202.268 76.5669 208.819 73.7008 233.386C69.6063 271.465 74.5197 296.441 82.7087 312.819C87.6221 322.646 97.8583 329.197 109.323 329.197H135.937C146.992 329.197 157.228 323.055 162.551 312.819C171.15 296.441 176.063 271.465 171.969 233.386Z" fill="#324A5E"/>
<path d="M85.1654 404.126C85.5748 403.716 85.9843 403.307 86.3937 402.898C85.9843 403.716 85.9843 404.535 85.5748 404.945C85.5748 405.354 85.5748 404.945 85.1654 404.126Z" fill="#324A5E"/>
<path d="M165.417 346.803C125.291 370.142 88.8504 351.716 81.0709 346.803C82.2992 340.661 84.7559 335.748 88.8504 332.882C88.8504 332.882 121.197 361.134 157.638 332.882C161.323 335.748 163.78 340.661 165.417 346.803Z" fill="white"/>
<path d="M159.685 402.898C160.094 403.307 160.504 403.717 160.913 404.126C160.913 404.945 160.504 405.354 160.504 405.354C160.094 404.535 160.094 403.717 159.685 402.898Z" fill="#324A5E"/>
<path d="M242.394 405.354C237.071 388.976 225.606 375.465 210.047 368.094L165.417 346.394C125.291 369.732 88.8504 351.307 81.0709 346.394L36.0315 368.094C32.7559 369.732 29.4803 371.78 26.2047 374.236C67.1496 458.173 152.724 517.134 251.811 520V466.772C251.811 445.48 248.535 425.008 242.394 405.354Z" fill="#E6E9EE"/>
<path d="M185.89 392.661H59.7795C52.4094 392.661 45.8583 395.118 40.5354 399.622C79.4331 460.22 142.488 504.031 216.189 516.315V423.37C216.598 406.583 202.677 392.661 185.89 392.661Z" fill="#324A5E"/>
<path d="M446.299 280.472C443.433 280.472 440.976 278.016 440.976 275.15L441.795 261.638C441.795 258.772 444.661 256.315 447.937 256.315C451.213 256.315 453.26 258.772 453.26 261.638L452.441 275.15C452.032 278.425 449.575 280.472 446.299 280.472Z" fill="#ECD2AC"/>
<path d="M348.031 280.472C347.622 280.472 347.622 280.472 348.031 280.472C344.756 280.472 342.299 278.016 341.89 275.15L341.071 261.638C341.071 258.772 343.118 256.315 346.394 256.315H346.803C346.394 265.323 346.803 273.512 348.031 280.472Z" fill="#ECD2AC"/>
<path d="M431.559 332.882C395.118 360.724 362.362 332.882 362.362 332.882C363.181 329.606 364.409 326.331 366.047 323.055C370.961 326.74 377.102 328.787 383.654 328.787H410.268C416.819 328.787 422.961 326.74 427.874 323.055C429.921 325.921 430.74 329.197 431.559 332.882Z" fill="#ECD2AC"/>
<path d="M445.89 233.386C443.433 208.819 412.724 202.268 397.165 202.268C397.165 202.268 397.165 202.268 396.756 202.268C396.756 202.268 396.756 202.268 396.346 202.268C380.787 202.268 350.488 208.819 347.622 233.386C343.528 271.465 348.441 296.441 356.63 312.819C361.543 322.646 371.78 329.197 383.244 329.197H409.858C420.913 329.197 431.15 323.055 436.472 312.819C445.071 296.441 449.984 271.465 445.89 233.386Z" fill="#324A5E"/>
<path d="M374.236 404.126C374.646 403.716 375.055 403.307 375.465 402.898C375.055 403.716 375.055 404.535 374.646 404.945C374.646 405.354 374.236 404.945 374.236 404.126Z" fill="#324A5E"/>
<path d="M439.339 346.803C399.213 370.142 362.772 351.716 354.992 346.803C356.22 340.661 358.677 335.748 362.772 332.882C362.772 332.882 395.118 361.134 431.559 332.882C435.244 335.748 437.701 340.661 439.339 346.803Z" fill="white"/>
<path d="M433.606 402.898C434.016 403.307 434.425 403.717 434.835 404.126C434.835 404.945 434.425 405.354 434.425 405.354C434.016 404.535 434.016 403.717 433.606 402.898Z" fill="#324A5E"/>
<path d="M493.795 373.827C490.929 371.78 487.654 369.732 483.968 368.094L439.339 346.394C399.213 369.732 362.772 351.307 354.992 346.394L310.362 368.094C294.803 375.465 283.339 388.976 278.016 405.354C271.465 425.008 268.598 445.89 268.598 466.772V520C367.276 516.724 452.441 458.173 493.795 373.827Z" fill="#E6E9EE"/>
<path d="M334.11 392.661C317.323 392.661 303.402 406.173 303.402 423.37V516.315C377.102 504.031 440.567 460.22 479.055 399.622C473.732 395.528 467.181 392.661 459.811 392.661H334.11Z" fill="#324A5E"/>
</svg>
