<svg width="391" height="592" viewBox="0 0 391 592" fill="none" xmlns="http://www.w3.org/2000/svg">
<g clip-path="url(#clip0_75_2)">
<path opacity="0.996" fill-rule="evenodd" clip-rule="evenodd" d="M208.5 -0.5C223.167 -0.5 237.833 -0.5 252.5 -0.5C260.838 1.85 267.171 6.85 271.5 14.5C248.902 40.459 220.235 53.459 185.5 53.5C185.334 43.8276 185.5 34.1609 186 24.5C188.837 11.8355 196.337 3.50214 208.5 -0.5Z" fill="#781900"/>
<path opacity="0.994" fill-rule="evenodd" clip-rule="evenodd" d="M271.5 14.5C273.129 16.8577 274.295 19.5243 275 22.5C275.667 43.8333 275.667 65.1667 275 86.5C270.469 101.011 260.636 108.677 245.5 109.5C234.167 109.5 222.833 109.5 211.5 109.5C197.55 106.716 189.05 98.3828 186 84.5C185.5 74.172 185.334 63.8387 185.5 53.5C220.235 53.459 248.902 40.459 271.5 14.5Z" fill="#FCDBD2"/>
<path opacity="0.989" fill-rule="evenodd" clip-rule="evenodd" d="M211.5 109.5C222.833 109.5 234.167 109.5 245.5 109.5C245.5 113.5 245.5 117.5 245.5 121.5C234.167 121.5 222.833 121.5 211.5 121.5C211.5 117.5 211.5 113.5 211.5 109.5Z" fill="#CB8A79"/>
<path opacity="0.974" fill-rule="evenodd" clip-rule="evenodd" d="M211.5 121.5C222.833 121.5 234.167 121.5 245.5 121.5C245.5 126.167 245.5 130.833 245.5 135.5C233.916 135.077 222.582 133.744 211.5 131.5C211.5 128.167 211.5 124.833 211.5 121.5Z" fill="#FCDCD2"/>
<path opacity="0.984" fill-rule="evenodd" clip-rule="evenodd" d="M204.5 131.5C218.819 139.882 220.152 150.049 208.5 162C206.5 162.667 204.5 163.333 202.5 164C195.654 164.172 188.987 164.672 182.5 165.5C163.737 165.551 145.07 166.384 126.5 168C123.379 190.748 120.546 213.581 118 236.5C101.998 236.847 91.998 229.18 88 213.5C89.337 193.8 91.337 174.133 94 154.5C96.994 142.172 104.828 135.672 117.5 135C146.483 133.342 175.483 132.175 204.5 131.5Z" fill="#FCDBD2"/>
<path opacity="0.999" fill-rule="evenodd" clip-rule="evenodd" d="M204.5 131.5C206.833 131.5 209.167 131.5 211.5 131.5C222.582 133.744 233.916 135.077 245.5 135.5C254.454 134.643 261.121 137.977 265.5 145.5C265.995 147.452 266.328 149.452 266.5 151.5C264.838 164.471 263.505 177.471 262.5 190.5C261.978 195.533 261.311 200.533 260.5 205.5C233.531 201.707 206.531 198.04 179.5 194.5C180.134 184.792 181.134 175.125 182.5 165.5C188.987 164.672 195.654 164.172 202.5 164C204.5 163.333 206.5 162.667 208.5 162C220.152 150.049 218.819 139.882 204.5 131.5Z" fill="#F3E28A"/>
<path opacity="0.982" fill-rule="evenodd" clip-rule="evenodd" d="M265.5 145.5C284.967 166.471 304.301 187.638 323.5 209C324.5 209.667 325.5 209.667 326.5 209C345.5 196.5 364.5 184 383.5 171.5C394.642 185.809 393.975 199.643 381.5 213C364.972 224.43 347.972 235.097 330.5 245C323.457 246.281 316.79 245.281 310.5 242C294.634 224.636 278.634 207.47 262.5 190.5C263.505 177.471 264.838 164.471 266.5 151.5C266.328 149.452 265.995 147.452 265.5 145.5Z" fill="#FCDBD2"/>
<path opacity="0.994" fill-rule="evenodd" clip-rule="evenodd" d="M179.5 194.5C206.531 198.04 233.531 201.707 260.5 205.5C259.167 218.167 257.833 230.833 256.5 243.5C229.191 239.173 201.858 234.839 174.5 230.5C176.031 218.359 177.698 206.359 179.5 194.5Z" fill="#AD9748"/>
<path opacity="0.998" fill-rule="evenodd" clip-rule="evenodd" d="M174.5 230.5C201.858 234.839 229.191 239.173 256.5 243.5C253.916 264.508 251.249 285.508 248.5 306.5C256.846 326.521 265.179 346.521 273.5 366.5C259.267 375.734 245.6 385.734 232.5 396.5C225.833 385.833 219.167 375.167 212.5 364.5C209.811 357.456 206.311 350.79 202 344.5C202.3 361.512 203.134 378.512 204.5 395.5C204.5 396.833 204.5 398.167 204.5 399.5C188.167 399.5 171.833 399.5 155.5 399.5C157.894 382.303 160.561 365.136 163.5 348C159.892 340.516 157.059 332.683 155 324.5C153.731 314.25 154.731 304.25 158 294.5C161.51 287.469 165.51 280.803 170 274.5C171.611 259.838 173.111 245.171 174.5 230.5Z" fill="#F3E289"/>
<path opacity="0.965" fill-rule="evenodd" clip-rule="evenodd" d="M212.5 364.5C209.833 374.833 207.167 385.167 204.5 395.5C203.134 378.512 202.3 361.512 202 344.5C206.311 350.79 209.811 357.456 212.5 364.5Z" fill="#AE9849"/>
<path opacity="0.987" fill-rule="evenodd" clip-rule="evenodd" d="M273.5 366.5C280.652 383.474 287.818 400.474 295 417.5C292.638 464.228 289.472 510.895 285.5 557.5C285.44 558.043 285.107 558.376 284.5 558.5C274.128 555.153 263.794 551.82 253.5 548.5C253.667 509.832 253.5 471.165 253 432.5C245.89 420.608 239.057 408.608 232.5 396.5C245.6 385.734 259.267 375.734 273.5 366.5Z" fill="#FCDBD2"/>
<path opacity="0.988" fill-rule="evenodd" clip-rule="evenodd" d="M155.5 399.5C171.833 399.5 188.167 399.5 204.5 399.5C198.149 427.084 191.982 454.751 186 482.5C183.098 490.381 177.432 493.715 169 492.5C127.173 489.991 85.339 487.657 43.5 485.5C46.03 473.712 49.03 462.045 52.5 450.5C83.168 450.667 113.835 450.5 144.5 450C145.667 449.5 146.5 448.667 147 447.5C149.531 431.307 152.364 415.307 155.5 399.5Z" fill="#FCDBD2"/>
<path opacity="0.997" fill-rule="evenodd" clip-rule="evenodd" d="M19.5 450.5C19.5 478.167 19.5 505.833 19.5 533.5C16.167 533.5 12.833 533.5 9.5 533.5C9.5 505.833 9.5 478.167 9.5 450.5C12.833 450.5 16.167 450.5 19.5 450.5Z" fill="#67B181"/>
<path opacity="0.988" fill-rule="evenodd" clip-rule="evenodd" d="M19.5 450.5C30.5 450.5 41.5 450.5 52.5 450.5C49.03 462.045 46.03 473.712 43.5 485.5C39.674 498.799 35.841 512.132 32 525.5C29.09 530.043 24.924 532.71 19.5 533.5C19.5 505.833 19.5 478.167 19.5 450.5Z" fill="#9CDFB8"/>
<path opacity="0.985" fill-rule="evenodd" clip-rule="evenodd" d="M253.5 548.5C263.794 551.82 274.128 555.153 284.5 558.5C285.107 558.376 285.44 558.043 285.5 557.5C298.786 561.428 312.12 565.261 325.5 569C331.582 571.578 335.249 576.078 336.5 582.5C308.833 582.5 281.167 582.5 253.5 582.5C253.5 571.167 253.5 559.833 253.5 548.5Z" fill="#9BDFB7"/>
<path opacity="0.999" fill-rule="evenodd" clip-rule="evenodd" d="M253.5 582.5C281.167 582.5 308.833 582.5 336.5 582.5C336.5 585.5 336.5 588.5 336.5 591.5C308.833 591.5 281.167 591.5 253.5 591.5C253.5 588.5 253.5 585.5 253.5 582.5Z" fill="#65AF7F"/>
</g>
<defs>
<clipPath id="clip0_75_2">
<rect width="391" height="592" fill="white"/>
</clipPath>
</defs>
</svg>
