<svg width="136" height="115" viewBox="0 0 136 115" fill="none" xmlns="http://www.w3.org/2000/svg">
<g filter="url(#filter0_d_150_2080)">
<path fill-rule="evenodd" clip-rule="evenodd" d="M16.6481 18.893C16.6481 18.893 30.0417 8.15195 36.8816 4.17916C43.5642 0.298323 47.7106 -1.34777 50.9811 1.27552C54.2512 3.89835 51.8618 13.5684 57.5988 19.3054C63.3358 25.0424 66.8533 23.9205 71.3418 23.5072C76.376 23.0434 82.6715 22.9686 86.1047 26.4018C90.9821 31.2792 84.9333 58.0223 92.6625 76.9063C97.5147 88.7625 112.411 104.708 112.411 104.708L105.088 112.053L68.1163 90.3793L41.663 44.1653L16.6481 18.893Z" fill="#A9EACE"/>
<path fill-rule="evenodd" clip-rule="evenodd" d="M14.8245 16.6825C14.8245 16.6825 29.3517 3.35111 33.5219 4.28368C37.6926 5.2158 40.0918 13.8046 41.6631 18.6676C43.3241 23.8105 45.4596 33.7663 44.6497 39.053C44.1854 42.082 41.9818 43.8466 41.9818 43.8466L14.8245 16.6825Z" fill="#11926B"/>
<path fill-rule="evenodd" clip-rule="evenodd" d="M106.681 113.646C102.337 117.991 75.0239 110.673 63.0171 98.6661L3.41674 39.0657C-2.21611 33.4329 -0.397844 19.6187 5.32876 17.393C12.1479 14.7427 14.0983 13.4139 16.8027 16.1183C16.8027 16.1183 31.3362 30.6518 42.3004 41.6156C53.2641 52.5797 60.8969 78.0603 70.6661 87.83C79.4303 96.5937 97.0031 105.954 102.857 107.909C105.698 108.858 108.062 106.529 109.55 105.04C110.314 104.276 111.774 102.803 113.189 104.217C114.435 105.464 113.562 106.765 112.418 107.909C110.392 109.935 107.504 112.824 106.681 113.646Z" fill="#2D5346"/>
<path fill-rule="evenodd" clip-rule="evenodd" d="M41.663 46.0778C40.2544 47.4859 37.9715 47.4859 36.5634 46.0778L6.70569 16.6709C12.0672 14.5285 13.7579 12.7729 16.8026 16.1182C16.8026 16.1182 31.3362 30.6518 42.3003 41.6155C42.9196 42.2353 43.5272 42.9069 44.1267 43.6136L41.663 46.0778Z" fill="#FF6D2E"/>
</g>
<defs>
<filter id="filter0_d_150_2080" x="0" y="0" width="135.798" height="114.909" filterUnits="userSpaceOnUse" color-interpolation-filters="sRGB">
<feFlood flood-opacity="0" result="BackgroundImageFix"/>
<feColorMatrix in="SourceAlpha" type="matrix" values="0 0 0 0 0 0 0 0 0 0 0 0 0 0 0 0 0 0 127 0" result="hardAlpha"/>
<feOffset dx="22"/>
<feComposite in2="hardAlpha" operator="out"/>
<feColorMatrix type="matrix" values="0 0 0 0 0 0 0 0 0 0 0 0 0 0 0 0 0 0 0.15 0"/>
<feBlend mode="normal" in2="BackgroundImageFix" result="effect1_dropShadow_150_2080"/>
<feBlend mode="normal" in="SourceGraphic" in2="effect1_dropShadow_150_2080" result="shape"/>
</filter>
</defs>
</svg>
