<svg width="358" height="358" viewBox="0 0 358 358" fill="none" xmlns="http://www.w3.org/2000/svg">
<path d="M261.928 22.8125H101.055L22.8125 101.055V342.625C22.8125 350.806 29.5063 357.5 37.6875 357.5H261.928C270.109 357.5 276.803 350.806 276.803 342.625V37.6875C276.803 29.5062 270.109 22.8125 261.928 22.8125Z" fill="#ACB9B6"/>
<path d="M239.616 0.5H78.7425L0.5 78.7425V320.312C0.5 328.494 7.19375 335.188 15.375 335.188H239.616C247.797 335.188 254.491 328.494 254.491 320.312V15.375C254.491 7.19375 247.797 0.5 239.616 0.5Z" fill="#BAF2D5"/>
<path d="M63.8675 78.7425C72.0488 78.7425 78.7425 72.0488 78.7425 63.8675V0.5L0.5 78.7425H63.8675Z" fill="#2B8162"/>
<path d="M204.139 111.542H50.9263V126.417H204.139V111.542Z" fill="white"/>
<path d="M204.139 144.118H50.9263V158.993H204.139V144.118Z" fill="white"/>
<path d="M204.139 176.694H50.9263V191.569H204.139V176.694Z" fill="white"/>
<path d="M204.139 209.271H50.9263V224.146H204.139V209.271Z" fill="white"/>
<path d="M204.139 241.921H50.9263V256.796H204.139V241.921Z" fill="white"/>
<path d="M204.139 274.497H50.9263V289.372H204.139V274.497Z" fill="white"/>
<path d="M290.042 140.251C248.689 98.8981 181.603 98.8981 140.251 140.251C98.8981 181.603 98.8981 248.689 140.251 290.042C177.141 326.932 234.484 330.799 275.836 301.868L326.114 352.145C333.328 359.359 344.931 359.359 352.145 352.145C359.359 344.931 359.359 333.328 352.145 326.114L301.868 275.836C330.874 234.558 327.006 177.215 290.042 140.251Z" fill="#FC7A3A"/>
<path d="M268.994 268.994C239.318 298.669 190.974 298.669 161.299 268.994C131.623 239.318 131.623 190.974 161.299 161.299C190.974 131.623 239.318 131.623 268.994 161.299C298.744 190.974 298.744 239.318 268.994 268.994Z" fill="white"/>
<path d="M161.299 176.174C190.974 146.498 239.318 146.498 268.994 176.174C281.935 189.115 289.224 205.626 290.86 222.584C293.017 200.718 285.728 178.033 268.994 161.299C239.318 131.623 190.974 131.623 161.299 161.299C144.564 178.033 137.276 200.718 139.358 222.584C141.069 205.626 148.358 189.115 161.299 176.174Z" fill="#BAF2D5"/>
</svg>
