<svg width="142" height="142" viewBox="0 0 142 142" fill="none" xmlns="http://www.w3.org/2000/svg">
<g clip-path="url(#clip0_150_2086)">
<path d="M137.37 127.337H4.63032C2.75852 127.337 1.07005 126.21 0.352839 124.479C-0.364374 122.748 0.0333383 120.756 1.35683 119.433L104.77 16.0191C106.579 14.2106 109.509 14.2106 111.318 16.0191C113.127 17.8263 113.127 20.7595 111.318 22.567L15.8087 118.076H137.37C139.926 118.076 142 120.149 142 122.707C142 125.264 139.926 127.337 137.37 127.337Z" fill="#AA6100"/>
<path d="M66.3697 127.337H4.63032C2.75852 127.337 1.07005 126.21 0.352839 124.479C-0.364374 122.748 0.0333383 120.756 1.35683 119.432L44.9931 75.7973C46.8016 73.9888 49.7321 73.9888 51.5409 75.7973C64.0907 88.3458 71.0002 105.005 71.0002 122.707C70.9999 125.264 68.9259 127.337 66.3697 127.337ZM15.8087 118.076H61.5552C60.5967 106.119 55.9418 94.8983 48.137 85.749L15.8087 118.076Z" fill="#AA6100"/>
<path d="M137.37 118.076H15.8087L111.318 22.5672C113.126 20.7601 113.126 17.8269 111.318 16.0194L4.63037 122.707H142C142 120.149 139.926 118.076 137.37 118.076Z" fill="#884E00"/>
<path d="M4.63037 122.707H66.3697C66.3697 105.686 59.4461 90.2506 48.2663 79.0712L4.63037 122.707ZM15.8087 118.076L48.1377 85.7491C55.9424 94.8986 60.5971 106.119 61.5559 118.076H15.8087Z" fill="#884E00"/>
</g>
<defs>
<clipPath id="clip0_150_2086">
<rect width="142" height="142" fill="white"/>
</clipPath>
</defs>
</svg>
