<svg width="649" height="649" viewBox="0 0 649 649" fill="none" xmlns="http://www.w3.org/2000/svg">
<g clip-path="url(#clip0_9_20)">
<path d="M226.72 642.553C226.72 645.777 223.497 649 220.273 649H195.56C192.336 649 189.113 645.777 189.113 642.553V633.957C189.113 630.734 192.336 627.51 195.56 627.51H220.273C223.497 627.51 226.72 630.734 226.72 633.957V642.553Z" fill="#FF7B00"/>
<path d="M459.887 642.553C459.887 645.777 456.664 649 453.44 649H428.727C425.503 649 422.28 645.777 422.28 642.553V633.957C422.28 630.734 425.503 627.51 428.727 627.51H453.44C456.664 627.51 459.887 630.734 459.887 633.957V642.553Z" fill="#FF7B00"/>
<path d="M496.421 593.126C496.421 637.181 460.962 632.883 416.907 632.883H232.093C188.038 632.883 152.579 637.181 152.579 593.126V79.5133C152.579 35.4586 188.038 0 232.093 0H416.907C460.962 0 496.421 35.4586 496.421 79.5133V593.126Z" fill="#FCE64C"/>
<path d="M416.907 0H306.233V632.883H416.907C460.962 632.883 496.421 637.181 496.421 593.126V79.5133C496.421 35.4586 460.962 0 416.907 0Z" fill="#F4BB19"/>
<path d="M334.171 234.242L188.038 89.1838L186.964 183.74L238.54 234.242H334.171Z" fill="#F4BB19"/>
<path d="M496.421 593.126V584.53L188.038 276.147L186.964 370.704L449.142 632.882C477.079 631.808 496.421 625.361 496.421 593.126Z" fill="#F4BB19"/>
<path d="M179.442 593.126V79.5133C179.442 35.4586 214.901 0 258.955 0H232.093C188.038 0 152.579 35.4586 152.579 79.5133V593.126C152.579 637.181 188.038 632.883 232.093 632.883C202.007 632.883 179.442 627.51 179.442 593.126Z" fill="#F4BB19"/>
<path d="M496.421 222.422H152.579V248.21H496.421V222.422Z" fill="#FF7B00"/>
<path d="M496.421 234.242H152.579V247.136H496.421V234.242Z" fill="#B83921"/>
<path d="M204.156 175.144C204.156 181.591 198.783 188.038 191.262 188.038C184.815 188.038 178.368 182.666 178.368 175.144V104.227C178.368 97.7798 183.74 91.3328 191.262 91.3328C197.709 91.3328 204.156 96.7053 204.156 104.227V175.144Z" fill="#B83921"/>
<path d="M185.889 92.4073C181.591 94.5564 178.368 98.8544 178.368 104.227V175.144C178.368 180.517 181.591 184.815 185.889 186.964C190.187 184.815 193.411 180.517 193.411 175.144V104.227C194.485 98.8544 191.262 94.5564 185.889 92.4073Z" fill="#FF4328"/>
<path d="M204.156 358.884C204.156 365.331 198.783 371.778 191.262 371.778C184.815 371.778 178.368 366.406 178.368 358.884V287.967C178.368 281.52 183.74 275.073 191.262 275.073C197.709 275.073 204.156 280.445 204.156 287.967V358.884Z" fill="#B83921"/>
<path d="M185.889 276.147C181.591 278.296 178.368 282.594 178.368 287.967V358.884C178.368 364.257 181.591 368.555 185.889 370.704C190.187 368.555 193.411 364.257 193.411 358.884V287.967C194.485 282.594 191.262 277.222 185.889 276.147Z" fill="#FF4328"/>
<path d="M453.44 178.368C452.366 178.368 451.291 177.293 451.291 176.219C451.291 175.144 452.366 174.07 453.44 174.07H469.558C470.632 174.07 471.707 175.144 471.707 176.219C471.707 177.293 470.632 178.368 469.558 178.368H453.44Z" fill="#F4BB19"/>
<path d="M453.44 192.336C452.366 192.336 451.291 191.262 451.291 190.187C451.291 189.113 452.366 188.038 453.44 188.038H469.558C470.632 188.038 471.707 189.113 471.707 190.187C471.707 191.262 470.632 192.336 469.558 192.336H453.44Z" fill="#F4BB19"/>
<path d="M453.44 205.23C452.366 205.23 451.291 204.156 451.291 203.081C451.291 202.007 452.366 200.932 453.44 200.932H469.558C470.632 200.932 471.707 202.007 471.707 203.081C471.707 204.156 470.632 205.23 469.558 205.23H453.44Z" fill="#F4BB19"/>
<path d="M453.44 583.455C452.366 583.455 451.291 582.381 451.291 581.306C451.291 580.232 452.366 579.157 453.44 579.157H469.558C470.632 579.157 471.707 580.232 471.707 581.306C471.707 582.381 470.632 583.455 469.558 583.455H453.44Z" fill="#F4BB19"/>
<path d="M453.44 596.349C452.366 596.349 451.291 595.275 451.291 594.2C451.291 593.126 452.366 592.051 453.44 592.051H469.558C470.632 592.051 471.707 593.126 471.707 594.2C471.707 595.275 470.632 596.349 469.558 596.349H453.44Z" fill="#F4BB19"/>
<path d="M453.44 610.318C452.366 610.318 451.291 609.243 451.291 608.169C451.291 607.094 452.366 606.02 453.44 606.02H469.558C470.632 606.02 471.707 607.094 471.707 608.169C471.707 609.243 470.632 610.318 469.558 610.318H453.44Z" fill="#F4BB19"/>
</g>
<defs>
<clipPath id="clip0_9_20">
<rect width="649" height="649" fill="white"/>
</clipPath>
</defs>
</svg>
