<?xml version="1.0" encoding="UTF-8"?>
<!DOCTYPE svg PUBLIC "-//W3C//DTD SVG 1.1//EN" "http://www.w3.org/Graphics/SVG/1.1/DTD/svg11.dtd">
<svg xmlns="http://www.w3.org/2000/svg" version="1.1" width="384px" height="366px" style="shape-rendering:geometricPrecision; text-rendering:geometricPrecision; image-rendering:optimizeQuality; fill-rule:evenodd; clip-rule:evenodd" xmlns:xlink="http://www.w3.org/1999/xlink">
<g><path style="opacity:1" fill="#a8e9cd" d="M 160.5,2.5 C 161.793,4.29585 163.293,5.96252 165,7.5C 168.128,19.7235 170.795,32.0568 173,44.5C 182.193,67.832 199.026,77.832 223.5,74.5C 233.521,73.6043 243.521,73.6043 253.5,74.5C 261.74,75.871 268.907,79.5377 275,85.5C 276.927,88.9481 278.261,92.6148 279,96.5C 279.97,129.177 281.303,161.843 283,194.5C 285.497,227.673 296.83,257.34 317,283.5C 328.934,299.046 341.101,314.379 353.5,329.5C 347.967,334.521 341.967,339.021 335.5,343C 331.074,343.791 326.741,343.457 322.5,342C 288.013,326.604 256.346,306.938 227.5,283C 219.917,275.653 213.417,267.487 208,258.5C 193.157,231.482 178.823,204.149 165,176.5C 159.251,166.666 153.251,156.999 147,147.5C 145,144.334 142.5,141.668 139.5,139.5C 139.267,137.938 138.6,136.605 137.5,135.5C 141.203,129.022 142.869,122.022 142.5,114.5C 140.421,82.5166 132.254,52.1832 118,23.5C 116.158,21.1364 114.325,18.8031 112.5,16.5C 123.616,8.02777 136.116,2.69444 150,0.5C 153.69,0.382064 157.19,1.04873 160.5,2.5 Z"/></g>
<g><path style="opacity:0.144" fill="#000000" d="M 223.5,74.5 C 199.026,77.832 182.193,67.832 173,44.5C 170.795,32.0568 168.128,19.7235 165,7.5C 163.293,5.96252 161.793,4.29585 160.5,2.5C 166.336,0.602035 172.336,0.102035 178.5,1C 184.098,2.93061 187.598,6.76394 189,12.5C 190.574,21.8503 192.241,31.1837 194,40.5C 198.368,56.6938 208.202,68.0271 223.5,74.5 Z"/></g>
<g><path style="opacity:0.998" fill="#13926b" d="M 112.5,16.5 C 114.325,18.8031 116.158,21.1364 118,23.5C 132.254,52.1832 140.421,82.5166 142.5,114.5C 142.869,122.022 141.203,129.022 137.5,135.5C 108.116,107.117 79.4498,78.117 51.5,48.5C 63.3868,38.4498 75.7201,28.9498 88.5,20C 93.5136,16.9914 98.8469,14.8248 104.5,13.5C 107.517,13.7258 110.184,14.7258 112.5,16.5 Z"/></g>
<g><path style="opacity:0.996" fill="#fd6d2e" d="M 51.5,48.5 C 79.4498,78.117 108.116,107.117 137.5,135.5C 138.6,136.605 139.267,137.938 139.5,139.5C 135.62,143.545 131.287,147.045 126.5,150C 123.12,150.938 120.12,150.271 117.5,148C 85.2982,116.297 52.9648,84.7973 20.5,53.5C 28.4256,48.4697 37.0923,45.9697 46.5,46C 48.1932,46.8466 49.8599,47.6799 51.5,48.5 Z"/></g>
<g><path style="opacity:0.993" fill="#2d5346" d="M 20.5,53.5 C 52.9648,84.7973 85.2982,116.297 117.5,148C 120.12,150.271 123.12,150.938 126.5,150C 131.287,147.045 135.62,143.545 139.5,139.5C 142.5,141.668 145,144.334 147,147.5C 153.251,156.999 159.251,166.666 165,176.5C 178.823,204.149 193.157,231.482 208,258.5C 213.417,267.487 219.917,275.653 227.5,283C 256.346,306.938 288.013,326.604 322.5,342C 326.741,343.457 331.074,343.791 335.5,343C 341.967,339.021 347.967,334.521 353.5,329.5C 359.873,329.368 362.373,332.368 361,338.5C 352.54,348.799 343.04,357.799 332.5,365.5C 325.167,365.5 317.833,365.5 310.5,365.5C 271.373,358.625 236.039,343.125 204.5,319C 139,253.5 73.5,188 8,122.5C 3.67157,115.995 0.838233,108.995 -0.5,101.5C -0.5,95.8333 -0.5,90.1667 -0.5,84.5C 0.875694,74.5746 4.87569,65.7413 11.5,58C 14.3635,56.2131 17.3635,54.7131 20.5,53.5 Z"/></g>
<g><path style="opacity:0.145" fill="#000000" d="M 383.5,332.5 C 383.5,334.5 383.5,336.5 383.5,338.5C 374.739,348.599 365.072,357.599 354.5,365.5C 347.167,365.5 339.833,365.5 332.5,365.5C 343.04,357.799 352.54,348.799 361,338.5C 362.373,332.368 359.873,329.368 353.5,329.5C 341.101,314.379 328.934,299.046 317,283.5C 296.83,257.34 285.497,227.673 283,194.5C 281.303,161.843 279.97,129.177 279,96.5C 278.261,92.6148 276.927,88.9481 275,85.5C 268.907,79.5377 261.74,75.871 253.5,74.5C 267.185,72.6371 280.185,74.8037 292.5,81C 299.187,87.7161 302.354,95.8828 302,105.5C 302.079,135.203 303.079,164.869 305,194.5C 306.863,218.292 313.53,240.625 325,261.5C 339.719,285.392 356.553,307.725 375.5,328.5C 378.66,328.983 381.326,330.316 383.5,332.5 Z"/></g>
</svg>
