<svg width="451" height="469" viewBox="0 0 451 469" fill="none" xmlns="http://www.w3.org/2000/svg">
<path d="M326.234 160L225.5 210.731L124.766 160L0 409.557L77.7234 401.871L117.608 469L225.5 253.776L333.392 469L373.277 401.871L451 409.557L326.234 160Z" fill="#2B8162"/>
<path d="M225.5 329C316.351 329 390 255.351 390 164.5C390 73.6492 316.351 0 225.5 0C134.649 0 61 73.6492 61 164.5C61 255.351 134.649 329 225.5 329Z" fill="#FFC54D"/>
<path d="M225.5 294C297.021 294 355 236.021 355 164.5C355 92.9791 297.021 35 225.5 35C153.979 35 96 92.9791 96 164.5C96 236.021 153.979 294 225.5 294Z" fill="#E8B04B"/>
<path d="M231.701 86.8263L253.192 129.681C254.215 131.721 256.262 133.252 258.309 133.762L305.897 140.904C311.526 141.925 314.084 148.557 309.991 152.638L275.707 186.31C274.172 187.84 273.148 190.391 273.66 192.432L281.847 239.878C282.871 245.49 276.73 250.081 271.613 247.02L229.142 224.573C227.095 223.552 224.537 223.552 222.49 224.573L179.507 247.02C174.39 249.571 168.25 245.49 169.273 239.878L177.46 192.432C177.972 190.391 176.949 187.84 175.414 186.31L141.13 152.638C137.036 148.557 139.083 141.415 145.223 140.904L192.811 133.762C194.858 133.252 196.905 132.232 197.928 129.681L219.42 86.8263C221.978 81.7246 229.142 81.7246 231.701 86.8263Z" fill="white"/>
</svg>
