<svg width="146" height="146" viewBox="0 0 146 146" fill="none" xmlns="http://www.w3.org/2000/svg">
<g clip-path="url(#clip0_9_2)">
<path d="M73 137.682C113.317 137.682 146 119.525 146 97.1264C146 74.7281 113.317 56.5708 73 56.5708C32.6832 56.5708 0 74.7281 0 97.1264C0 119.525 32.6832 137.682 73 137.682Z" fill="#BABCBF"/>
<path d="M73 130.585C113.317 130.585 146 112.427 146 90.0292C146 67.631 113.317 49.4736 73 49.4736C32.6832 49.4736 0 67.631 0 90.0292C0 112.427 32.6832 130.585 73 130.585Z" fill="#E6ECEF"/>
<path d="M129.778 82.705C129.778 100.124 104.358 114.249 73 114.249C41.6424 114.249 16.2222 100.124 16.2222 82.705C16.2222 65.2864 41.6424 51.1609 73 51.1609C104.358 51.1609 129.778 65.2864 129.778 82.705Z" fill="#FC7A3A"/>
<path d="M129.778 73.9692C129.778 91.3878 104.358 105.513 73 105.513C41.6424 105.513 16.2222 91.3878 16.2222 73.9692C16.2222 56.5505 41.6424 42.425 73 42.425C104.358 42.425 129.778 56.5505 129.778 73.9692Z" fill="#FAAA35"/>
<path d="M129.778 65.2336C129.778 82.6522 104.358 96.7777 73 96.7777C41.6424 96.7777 16.2222 82.6562 16.2222 65.2336C16.2222 47.8109 41.6424 33.6895 73 33.6895C104.358 33.6895 129.778 47.8149 129.778 65.2336Z" fill="#FC7A3A"/>
<path d="M129.778 56.5019C129.778 73.9205 104.358 88.046 73 88.046C41.6424 88.046 16.2222 73.9205 16.2222 56.5019C16.2222 39.0833 41.6424 24.9578 73 24.9578C104.358 24.9578 129.778 39.0792 129.778 56.5019Z" fill="#FAAA35"/>
<path d="M129.778 47.7663C129.778 65.1849 104.358 79.3104 73 79.3104C41.6424 79.3104 16.2222 65.1849 16.2222 47.7663C16.2222 30.3477 41.6424 16.2222 73 16.2222C104.358 16.2222 129.778 30.3477 129.778 47.7663Z" fill="#F19020"/>
<path d="M114.837 95.2974C111.893 97.0778 108.583 98.6716 104.978 100.042C105.461 102.301 106.876 103.473 108.506 103.473C110.944 103.473 113.86 100.849 114.837 95.2974Z" fill="#E18524"/>
<path d="M115.182 86.3508C112.079 88.261 108.563 89.9603 104.706 91.4081C104.759 94.2794 104.804 96.5262 104.804 98.2661C104.804 98.919 104.864 99.5111 104.978 100.042C108.583 98.6757 111.893 97.0818 114.837 95.2974C115.052 94.0645 115.174 92.6897 115.174 91.1688L115.182 86.3508Z" fill="#E5922E"/>
<path d="M115.218 77.5908C112.071 79.5334 108.494 81.2611 104.573 82.7211C104.609 86.1034 104.658 88.9788 104.702 91.4081C108.555 89.9643 112.075 88.265 115.178 86.3508C115.19 82.9888 115.202 80.0525 115.218 77.5908Z" fill="#E18524"/>
<path d="M115.312 68.762L104.532 73.9693C104.532 77.2097 104.552 80.1175 104.577 82.7212C108.498 81.2612 112.075 79.5335 115.222 77.5909C115.259 71.9091 115.312 68.762 115.312 68.762Z" fill="#E5922E"/>
<path d="M62.2163 25.7893C46.1117 20.878 39.3227 23.356 40.3812 36.0255C40.6529 39.3024 36.1512 44.7612 31.6455 47.9002C21.17 55.2002 25.6717 67.4034 43.6581 58.4082C52.6655 53.9065 65.8014 54.2107 81.7357 59.0895C95.1109 63.1856 103.437 67.959 104.528 73.9653C108.077 72.7648 112.404 70.8871 115.312 68.7579C114.213 66.2678 109.305 58.9516 101.527 55.5409C86.8132 49.0885 101.024 39.7891 112.035 37.5261C121.999 35.478 112.173 27.9712 97.0211 28.247C81.8736 28.5228 85.6817 32.9514 62.2163 25.7893Z" fill="#FC7A3A"/>
<path d="M89.717 34.7602C89.717 34.7602 90.1509 39.8175 88.4395 40.7908L76.0863 47.8312C74.3789 48.8046 71.6171 48.8046 69.9097 47.8312L57.5564 40.7908C55.8491 39.8175 56.2749 34.6628 56.2749 34.6628L89.717 34.7602Z" fill="#FAAA35"/>
<path d="M88.4395 32.9028C89.3358 33.4138 89.7616 34.091 89.717 34.7602C89.6764 35.3645 89.2506 35.9607 88.4395 36.423L76.0863 43.4634C74.3789 44.4368 71.617 44.4368 69.9097 43.4634L57.5564 36.423C56.7048 35.9363 56.2749 35.2996 56.2749 34.6629C56.2749 34.0262 56.7007 33.3894 57.5564 32.9028L69.9097 25.8623C71.617 24.889 74.3789 24.889 76.0863 25.8623L88.4395 32.9028Z" fill="#FFD882"/>
</g>
<defs>
<clipPath id="clip0_9_2">
<rect width="146" height="146" fill="white"/>
</clipPath>
</defs>
</svg>
