<svg width="381" height="381" viewBox="0 0 381 381" fill="none" xmlns="http://www.w3.org/2000/svg">
<path d="M160.256 289.355V245.07H90.3074V229.492C90.3074 190.921 121.687 159.543 160.256 159.543V145.391C136.676 145.391 117.493 126.207 117.493 102.627C117.493 79.0466 136.676 59.8627 160.256 59.8627V31.1566C89.0705 31.1566 31.1566 89.0705 31.1566 160.256C31.1566 231.441 89.0705 289.355 160.256 289.355Z" fill="#B8DADB"/>
<path d="M203.02 102.627C203.02 126.208 183.836 145.391 160.256 145.391V159.544C198.827 159.544 230.205 190.923 230.205 229.492V245.071H160.256V289.356C231.442 289.356 289.355 231.442 289.355 160.256C289.355 89.0705 231.441 31.1566 160.256 31.1566V59.8635C183.836 59.8635 203.02 79.0474 203.02 102.627Z" fill="#C1EFF0"/>
<path d="M117.492 102.628C117.492 126.208 136.675 145.391 160.256 145.391V59.8635C136.676 59.8635 117.492 79.0474 117.492 102.628Z" fill="#2B8162"/>
<path d="M203.02 102.628C203.02 79.0474 183.836 59.8635 160.256 59.8635V145.391C183.836 145.391 203.02 126.207 203.02 102.628Z" fill="#2B8162"/>
<path d="M230.204 229.492C230.204 190.921 198.826 159.543 160.256 159.543C121.685 159.543 90.3066 190.922 90.3066 229.492V245.07H230.204V229.492Z" fill="#2B8162"/>
<path d="M381 358.969L284.003 261.972C277.387 270.006 270.006 277.387 261.972 284.003L358.968 381L381 358.969Z" fill="#FC7A3A"/>
<path d="M284.003 261.972C306.804 234.283 320.512 198.841 320.512 160.256C320.512 71.8907 248.621 0 160.256 0C71.8907 0 0 71.8907 0 160.256C0 248.622 71.8907 320.513 160.256 320.513C198.841 320.513 234.283 306.804 261.972 284.003C270.006 277.387 277.387 270.006 284.003 261.972ZM160.256 31.1566C231.442 31.1566 289.355 89.0705 289.355 160.256C289.355 231.442 231.441 289.356 160.256 289.356C89.0713 289.356 31.1566 231.441 31.1566 160.256C31.1566 89.0705 89.0705 31.1566 160.256 31.1566Z" fill="#FC7A3A"/>
</svg>
