<svg width="223" height="370" viewBox="0 0 223 370" fill="none" xmlns="http://www.w3.org/2000/svg">
<path d="M0.25 332.333V37.6667C0.25 17.4083 16.9375 0.833344 37.3333 0.833344H185.667C206.063 0.833344 222.75 17.4083 222.75 37.6667V332.333C222.75 352.592 206.063 369.167 185.667 369.167H37.3333C16.9375 369.167 0.25 352.592 0.25 332.333Z" fill="#4A4D4F"/>
<path d="M185.667 28.4583H37.3333C31.7708 28.4583 28.0625 32.1417 28.0625 37.6667V304.708C28.0625 310.233 31.7708 313.917 37.3333 313.917H185.667C191.229 313.917 194.938 310.233 194.938 304.708V37.6667C194.938 32.1417 191.229 28.4583 185.667 28.4583Z" fill="#D3D9DE"/>
<path d="M83.6875 332.333H139.312V350.75H83.6875V332.333Z" fill="#303131"/>
</svg>
