<svg width="142" height="138" viewBox="0 0 142 138" fill="none" xmlns="http://www.w3.org/2000/svg">
<path d="M105.847 9.93525L79.8499 56.8816C79.439 57.62 79.7032 58.5667 80.4468 58.9832C81.1806 59.3998 82.1199 59.1252 82.5308 58.3868L108.538 11.4405C108.949 10.7021 108.684 9.75538 107.941 9.33883C107.197 8.92229 106.258 9.19683 105.847 9.93525ZM124.506 17.0165L98.4989 63.9628C98.0879 64.7012 98.3521 65.6479 99.0957 66.0645C99.8295 66.481 100.769 66.2065 101.18 65.4681L127.187 18.5217C127.597 17.7833 127.333 16.8366 126.59 16.4201C125.856 16.0035 124.917 16.2686 124.506 17.0165Z" fill="#6C4820"/>
<path d="M13.1012 72.5493C13.1012 72.5493 8.96245 64.0764 18.0325 61.4541C19.9405 58.0649 26.4666 42.6623 41.9161 53.2936C43.5109 49.4406 57.6786 32.6463 77.1005 50.3683C82.6776 47.1307 97.0019 43.7794 99.2327 57.478C103.371 54.2214 110.064 54.3728 109.741 63.3096C112.608 64.3888 118.655 65.3166 119.613 72.5493C93.6654 85.9544 33.9614 89.1921 33.9614 89.1921L18.3554 79.9524L13.1012 72.5493Z" fill="#F5ECDA"/>
<path d="M7.01537 72.5493C7.78833 106.375 33.844 133.554 65.8877 133.554C97.9314 133.554 123.987 106.375 124.76 72.5493H7.01537Z" fill="#FC7A3A"/>
<path d="M65.8877 125.28C45.3015 125.28 26.8189 115.785 14.0601 100.713C24.0108 120.272 43.4816 133.564 65.8877 133.564C88.2938 133.564 107.755 120.272 117.715 100.713C104.957 115.785 86.4739 125.28 65.8877 125.28Z" fill="#2B8162"/>
<path d="M48.5107 53.057C48.5107 53.057 48.5205 53.0381 48.5401 52.9908C48.5596 52.9434 48.589 52.8866 48.6281 52.8014C48.6673 52.7257 48.7162 52.6216 48.7847 52.5174C48.8434 52.4038 48.9217 52.2808 49.0097 52.1482C49.1858 51.8737 49.4207 51.5707 49.7044 51.2299C49.7729 51.1447 49.8512 51.0595 49.9295 50.9743C50.0077 50.8891 50.0958 50.8039 50.1741 50.7093C50.3502 50.5294 50.5361 50.359 50.7415 50.1791C50.947 49.9992 51.1623 49.8194 51.3971 49.6395C51.5145 49.5448 51.6319 49.4691 51.7591 49.3744L52.1407 49.1188C52.4049 48.9484 52.6788 48.778 52.9626 48.6265C53.1094 48.5508 53.2561 48.4656 53.4029 48.3993C53.5497 48.3236 53.7062 48.2479 53.8628 48.1816C54.0193 48.1059 54.1759 48.0396 54.3422 47.9828C54.5085 47.9165 54.6651 47.8503 54.8314 47.7935C55.1641 47.6799 55.5065 47.5568 55.8588 47.4716C56.0349 47.4242 56.211 47.3769 56.3871 47.339C56.5632 47.3012 56.7491 47.2633 56.935 47.2254C57.2971 47.1497 57.6689 47.1118 58.0407 47.0645C58.4125 47.0266 58.7843 47.0077 59.1659 46.9888H59.7236L60.0073 46.9982H60.1443L60.2813 47.0077C61.0249 47.055 61.7489 47.1592 62.4338 47.3296C63.1187 47.4905 63.7645 47.7083 64.3613 47.9639C64.5081 48.0301 64.6549 48.0964 64.7919 48.1627L65.2028 48.3615C65.467 48.5129 65.7116 48.6549 65.9464 48.8064C66.0638 48.8821 66.1714 48.9579 66.2791 49.0336C66.3867 49.1094 66.4943 49.1851 66.5922 49.2608C66.69 49.3366 66.7879 49.4123 66.8759 49.488C66.9248 49.5259 66.964 49.5638 67.0129 49.6016C67.052 49.6395 67.101 49.6774 67.1401 49.7152C67.3064 49.8762 67.4532 50.0087 67.5902 50.1507C67.6587 50.217 67.7174 50.2832 67.7859 50.3495C67.8446 50.4063 67.9033 50.4821 67.9522 50.5483C68.0598 50.6714 68.1479 50.785 68.2164 50.8891C68.2946 50.9933 68.3533 51.0785 68.4023 51.1542C68.4512 51.2205 68.4903 51.2867 68.5099 51.3246C68.5295 51.3625 68.549 51.3814 68.549 51.3814L68.4121 51.6275C68.4121 51.6275 68.3338 51.5991 68.1968 51.5329C68.0598 51.4666 67.8543 51.3814 67.6 51.2678C67.4728 51.2015 67.326 51.1542 67.1694 51.0879C67.0129 51.0311 66.8368 50.9554 66.6509 50.8891C66.465 50.8134 66.2693 50.7566 66.054 50.6903C65.9464 50.6525 65.8388 50.6241 65.7311 50.5862C65.6235 50.5483 65.5061 50.5105 65.3887 50.4821C65.1539 50.4158 64.9093 50.3495 64.6549 50.2832C64.4005 50.2264 64.1363 50.1696 63.8623 50.1128C63.3144 50.0087 62.7371 49.9235 62.1403 49.8572C61.5337 49.791 60.9173 49.772 60.2813 49.7626C60.1247 49.7531 59.9584 49.772 59.8018 49.772C59.6453 49.7815 59.479 49.7815 59.3224 49.791C59.1659 49.8004 58.9995 49.8194 58.843 49.8288C58.6864 49.8383 58.5201 49.8478 58.3635 49.8762C58.0407 49.914 57.7178 49.9424 57.4047 49.9992C57.2481 50.0276 57.0916 50.0466 56.9253 50.075C56.7687 50.1034 56.6121 50.1318 56.4556 50.1696C56.1425 50.2264 55.8392 50.3022 55.5359 50.3779C55.3793 50.4158 55.2326 50.4537 55.0858 50.501C54.939 50.5389 54.7923 50.5767 54.6455 50.6241C54.352 50.7093 54.0682 50.7945 53.7943 50.8891C53.5203 50.9743 53.2463 51.0785 52.9822 51.1731C52.718 51.2678 52.4734 51.3719 52.2288 51.4666C51.9842 51.5707 51.7493 51.6654 51.5341 51.7696C51.0938 51.9684 50.6926 52.1672 50.3404 52.3376C49.9882 52.5174 49.6848 52.6784 49.4402 52.8204C49.1956 52.9624 49.0097 53.076 48.8825 53.1517C48.8238 53.1896 48.7749 53.218 48.7358 53.2464C48.7064 53.2653 48.6868 53.2748 48.6868 53.2748L48.5107 53.057ZM22.3768 64.938V64.8717C22.3768 64.8244 22.3866 64.7581 22.3963 64.6729C22.4061 64.5877 22.4257 64.4836 22.4453 64.3511C22.4648 64.228 22.504 64.086 22.5431 63.9345C22.6214 63.6221 22.7388 63.2624 22.9051 62.8553C22.9443 62.7511 22.9932 62.647 23.0421 62.5429C23.091 62.4387 23.1399 62.3251 23.1889 62.221C23.2965 62.0033 23.4237 61.7761 23.5509 61.5394C23.6781 61.3027 23.8346 61.0755 24.001 60.8294C24.0792 60.7063 24.1673 60.5927 24.2554 60.4696C24.3434 60.3466 24.4315 60.2235 24.5293 60.1099C24.725 59.8732 24.9305 59.6271 25.1555 59.3999C25.2631 59.2863 25.3806 59.1632 25.498 59.0496L25.86 58.6993C25.9872 58.5857 26.1144 58.4721 26.2514 58.3585C26.3883 58.2544 26.5155 58.1313 26.6623 58.0272C26.9461 57.8189 27.2298 57.6012 27.5331 57.4118C27.6799 57.3077 27.8364 57.2225 27.993 57.1183C28.1495 57.0237 28.3159 56.9385 28.4724 56.8533C28.7953 56.6734 29.1377 56.5219 29.4704 56.361C29.8129 56.2095 30.1651 56.077 30.5076 55.9539C30.6837 55.8971 30.8598 55.8403 31.0457 55.7835L31.3099 55.7078L31.4468 55.6699L31.5838 55.6415C32.2981 55.4616 33.0221 55.3386 33.7266 55.2912C34.4311 55.2344 35.116 55.2534 35.7617 55.3102C35.9183 55.3291 36.0846 55.348 36.2314 55.367C36.3879 55.3859 36.5347 55.4048 36.6912 55.4332C36.9848 55.49 37.2685 55.5563 37.5425 55.632C37.6795 55.6604 37.8067 55.7078 37.9339 55.7456C38.0611 55.7835 38.1883 55.8214 38.3057 55.8687C38.4231 55.9161 38.5405 55.9539 38.6481 55.9918C38.7068 56.0107 38.7557 56.0297 38.8145 56.0581C38.8634 56.0865 38.9221 56.1054 38.971 56.1338C39.1765 56.2285 39.3722 56.3137 39.5385 56.4083C39.6266 56.4557 39.7048 56.4935 39.7831 56.5409C39.8614 56.5787 39.9299 56.6355 40.0081 56.6734C40.1451 56.7586 40.2723 56.8438 40.3702 56.9195C40.4778 56.9953 40.5658 57.0615 40.6343 57.1089C40.7028 57.1562 40.7615 57.2035 40.7909 57.2319C40.83 57.2604 40.8398 57.2793 40.8398 57.2793L40.7909 57.5633L40.5561 57.5349C40.3995 57.516 40.1843 57.497 39.9005 57.4592C39.7635 57.4402 39.607 57.4308 39.4309 57.4213C39.2645 57.4118 39.0786 57.4024 38.8732 57.3929C38.6775 57.374 38.4622 57.3834 38.247 57.3834H37.5523C37.3077 57.3929 37.0533 57.4024 36.7989 57.4213C36.5347 57.4402 36.2705 57.4686 35.9966 57.497C35.4486 57.5633 34.8714 57.658 34.2745 57.781C33.6777 57.9041 33.0808 58.065 32.4742 58.2638C32.3177 58.3112 32.1709 58.368 32.0241 58.4153C31.8774 58.4721 31.7208 58.5194 31.574 58.5762C31.4273 58.633 31.2805 58.6993 31.1337 58.7561C30.987 58.8224 30.8304 58.8792 30.6935 58.9455C30.3999 59.078 30.1064 59.2011 29.8226 59.3525C29.6759 59.4283 29.5389 59.4945 29.3921 59.5703C29.2552 59.646 29.1182 59.7217 28.9714 59.7975C28.6877 59.9489 28.4235 60.1194 28.1593 60.2708C28.0223 60.3466 27.8951 60.4412 27.7679 60.517C27.6407 60.6022 27.5135 60.6779 27.3863 60.7726C27.1417 60.943 26.8971 61.1134 26.6623 61.2838C26.4275 61.4542 26.2024 61.6246 25.9872 61.795C25.7719 61.9654 25.5665 62.1358 25.361 62.3062C25.1653 62.4766 24.9696 62.6375 24.8033 62.7985C24.451 63.1204 24.1282 63.4233 23.8542 63.6978C23.5802 63.9724 23.3454 64.2185 23.1595 64.4268C22.9736 64.6351 22.8268 64.796 22.7388 64.9191C22.6899 64.9759 22.6605 65.0232 22.6312 65.0516C22.6116 65.08 22.592 65.0989 22.592 65.0989L22.3768 64.938ZM82.0221 53.0286C82.0221 53.0286 82.0416 53.0192 82.071 52.9908C82.1003 52.9718 82.1493 52.934 82.2178 52.8961C82.2765 52.8582 82.3547 52.8014 82.4526 52.7541C82.5406 52.6973 82.6483 52.6405 82.7755 52.5837C83.0201 52.4606 83.3136 52.347 83.6658 52.2334C83.7539 52.205 83.8419 52.1766 83.9398 52.1577C84.0278 52.1293 84.1257 52.1104 84.2235 52.082C84.4192 52.0346 84.6247 51.9968 84.8497 51.9589C85.29 51.8832 85.7597 51.8453 86.2587 51.8548C86.5131 51.8548 86.7675 51.8642 87.0316 51.8926C87.1588 51.9021 87.2958 51.9116 87.4328 51.94C87.5698 51.9589 87.697 51.9778 87.834 51.9968C88.1079 52.0441 88.3721 52.1104 88.6558 52.1766C88.7928 52.2145 88.9298 52.2524 89.0668 52.2997C89.2038 52.3376 89.3407 52.3944 89.4777 52.4417C89.6147 52.489 89.7517 52.5458 89.8887 52.5932C90.0256 52.65 90.1528 52.7068 90.2898 52.773C90.5638 52.8866 90.8182 53.0381 91.0726 53.1801C91.327 53.3316 91.5814 53.4925 91.8162 53.6629C91.9336 53.7481 92.051 53.8428 92.1684 53.928C92.2858 54.0227 92.4032 54.1079 92.5109 54.2025C92.9512 54.5812 93.3523 54.9978 93.6948 55.4427C94.0372 55.8782 94.321 56.3326 94.5558 56.787C94.6145 56.9006 94.6634 57.0142 94.7123 57.1278C94.7613 57.2414 94.8102 57.3456 94.8493 57.4592C94.9276 57.6864 95.0059 57.9041 95.0646 58.1124C95.0939 58.2165 95.1233 58.3206 95.1428 58.4248C95.1624 58.5289 95.1918 58.6236 95.2016 58.7277C95.2211 58.8224 95.2309 58.9265 95.2505 59.0117C95.2603 59.0591 95.27 59.1064 95.27 59.1443C95.27 59.1916 95.2798 59.2389 95.2798 59.2863C95.2896 59.4661 95.3092 59.6271 95.2994 59.788C95.2994 59.9395 95.2994 60.0815 95.2896 60.214C95.2798 60.3466 95.27 60.4602 95.2505 60.5643C95.2407 60.6684 95.2211 60.7536 95.2113 60.8294C95.2016 60.8956 95.182 60.9524 95.1722 60.9903C95.1624 61.0282 95.1624 61.0471 95.1624 61.0471L94.8982 61.1702C94.8982 61.1702 94.8689 61.1134 94.8102 61.0187C94.7515 60.9146 94.6732 60.7726 94.5656 60.5832C94.5167 60.4886 94.4482 60.3939 94.3797 60.2803C94.3112 60.1762 94.2329 60.0531 94.1546 59.93C94.0764 59.8069 93.9785 59.6744 93.8807 59.5419C93.7828 59.4093 93.6948 59.2579 93.5774 59.1159C93.4599 58.9739 93.3425 58.8224 93.2251 58.6709C93.0979 58.5194 92.9609 58.368 92.824 58.2165C92.5402 57.9136 92.2271 57.6012 91.8847 57.2982C91.5422 56.9953 91.1802 56.6923 90.7888 56.4083C90.5931 56.2663 90.3877 56.1338 90.192 56.0013C89.9865 55.8782 89.781 55.7456 89.5658 55.6226C89.3505 55.4995 89.1451 55.3764 88.92 55.2628L88.5971 55.0924C88.4895 55.0451 88.3721 54.9883 88.2645 54.941C88.0492 54.8368 87.8242 54.7516 87.5991 54.657C87.3741 54.5718 87.1588 54.4865 86.9436 54.4013C86.7283 54.3256 86.5131 54.2499 86.2978 54.1836C86.0826 54.1079 85.8771 54.0511 85.6716 53.9943C85.2607 53.8807 84.8693 53.7765 84.5073 53.7008C84.1453 53.6251 83.8028 53.5588 83.5093 53.5115C83.206 53.4641 82.9418 53.4263 82.7265 53.3979C82.5113 53.3695 82.3352 53.3505 82.2275 53.3505C82.1688 53.3505 82.1297 53.3411 82.1003 53.3411H82.0514L82.0221 53.0286ZM98.7924 61.0282C98.7924 61.0282 98.8022 61.0187 98.8218 60.9903C98.8413 60.9714 98.8707 60.9335 98.9098 60.8862C98.949 60.8388 98.9979 60.7915 99.0566 60.7347C99.1153 60.6779 99.1838 60.6211 99.2621 60.5548C99.4186 60.4223 99.6143 60.2898 99.8393 60.1667C100.064 60.0436 100.329 59.9111 100.622 59.8164C101.199 59.6176 101.894 59.504 102.628 59.5703C102.814 59.5797 103 59.6081 103.186 59.646C103.274 59.6649 103.371 59.6839 103.469 59.7123C103.557 59.7312 103.655 59.7596 103.743 59.788C103.929 59.8448 104.115 59.9111 104.291 59.9868C104.477 60.0625 104.653 60.1572 104.82 60.2519C104.996 60.3466 105.162 60.4602 105.319 60.5738C105.397 60.6306 105.475 60.6968 105.553 60.7536C105.632 60.8199 105.71 60.8767 105.778 60.943C105.925 61.0755 106.062 61.2175 106.189 61.3595C106.317 61.511 106.434 61.653 106.542 61.8139C106.757 62.1263 106.923 62.4577 107.041 62.7795C107.099 62.9405 107.148 63.1014 107.187 63.2624C107.227 63.4233 107.246 63.5842 107.266 63.7357C107.275 63.8114 107.285 63.8872 107.285 63.9629C107.285 64.0386 107.295 64.1049 107.285 64.1807V64.4836C107.285 64.5215 107.275 64.5499 107.275 64.5877C107.256 64.7203 107.246 64.8339 107.217 64.9475C107.197 65.0611 107.168 65.1557 107.138 65.2599C107.109 65.3545 107.08 65.4397 107.05 65.5155C107.021 65.5912 106.992 65.648 106.972 65.7048C106.953 65.7522 106.923 65.7995 106.913 65.8184C106.904 65.8468 106.894 65.8563 106.894 65.8563L106.63 65.9794C106.63 65.9794 106.61 65.951 106.571 65.8847C106.532 65.8279 106.483 65.7427 106.414 65.6291C106.346 65.5155 106.258 65.3924 106.16 65.2409C106.111 65.1652 106.052 65.0895 105.994 65.0137C105.935 64.938 105.876 64.8433 105.798 64.7581C105.729 64.6729 105.651 64.5877 105.583 64.4931C105.504 64.4079 105.416 64.3132 105.328 64.228C105.152 64.0481 104.957 63.8682 104.751 63.6884C104.546 63.5085 104.321 63.3286 104.086 63.1677C103.968 63.0825 103.841 63.0068 103.724 62.931C103.597 62.8553 103.469 62.7796 103.342 62.7133C103.215 62.6375 103.088 62.5713 102.951 62.505C102.824 62.4387 102.687 62.3725 102.55 62.3157C102.422 62.2494 102.285 62.2021 102.148 62.1453C102.011 62.0979 101.884 62.0411 101.747 61.9938C101.61 61.9465 101.483 61.9086 101.356 61.8613C101.229 61.8139 101.102 61.7761 100.974 61.7477C100.73 61.6814 100.485 61.6151 100.27 61.5678C100.045 61.5205 99.8491 61.4826 99.6632 61.4447C99.4773 61.4163 99.3208 61.3879 99.1936 61.369C99.0664 61.35 98.9587 61.3406 98.8903 61.3311C98.8218 61.3216 98.7826 61.3216 98.7826 61.3216L98.7924 61.0282Z" fill="white"/>
<path d="M37.4348 65.7143C37.4348 66.2566 37.6575 66.7767 38.0538 67.1602C38.4502 67.5437 38.9877 67.7591 39.5483 67.7591C40.1088 67.7591 40.6463 67.5437 41.0427 67.1602C41.439 66.7767 41.6617 66.2566 41.6617 65.7143C41.6617 65.172 41.439 64.6518 41.0427 64.2684C40.6463 63.8849 40.1088 63.6694 39.5483 63.6694C38.9877 63.6694 38.4502 63.8849 38.0538 64.2684C37.6575 64.6518 37.4348 65.172 37.4348 65.7143Z" fill="#774621"/>
<path d="M42.9728 61.2175C42.9728 61.7598 43.1954 62.2799 43.5918 62.6634C43.9881 63.0469 44.5257 63.2623 45.0862 63.2623C45.6467 63.2623 46.1843 63.0469 46.5806 62.6634C46.9769 62.2799 47.1996 61.7598 47.1996 61.2175C47.1996 60.6751 46.9769 60.155 46.5806 59.7715C46.1843 59.388 45.6467 59.1726 45.0862 59.1726C44.5257 59.1726 43.9881 59.388 43.5918 59.7715C43.1954 60.155 42.9728 60.6751 42.9728 61.2175Z" fill="#774621"/>
<path d="M67.5314 61.634C67.5314 62.1763 67.7541 62.6964 68.1505 63.0799C68.5468 63.4634 69.0843 63.6788 69.6449 63.6788C70.2054 63.6788 70.7429 63.4634 71.1393 63.0799C71.5356 62.6964 71.7583 62.1763 71.7583 61.634C71.7583 61.0916 71.5356 60.5715 71.1393 60.188C70.7429 59.8045 70.2054 59.5891 69.6449 59.5891C69.0843 59.5891 68.5468 59.8045 68.1505 60.188C67.7541 60.5715 67.5314 61.0916 67.5314 61.634Z" fill="#774621"/>
<path d="M49.1467 125.166H85.4074V135.078H49.1467V125.166Z" fill="#2B8162"/>
<path d="M41.2507 13.8924C41.5345 13.8924 41.8084 13.9492 42.0824 14.0155C42.2194 14.0533 42.3564 14.0912 42.4933 14.1385C42.6303 14.1859 42.7575 14.2332 42.8945 14.29C43.0315 14.3468 43.1587 14.4036 43.2859 14.4699C43.4131 14.5362 43.5403 14.6024 43.6675 14.6782C43.7947 14.7539 43.9121 14.8296 44.0295 14.9148C44.1469 15 44.2643 15.0852 44.3817 15.1799C44.6068 15.3598 44.8318 15.5586 45.0373 15.7669C45.1351 15.871 45.2427 15.9751 45.3308 16.0887C45.4189 16.2023 45.5167 16.3159 45.6048 16.4295L45.8592 16.7893C45.9374 16.9123 46.0157 17.0354 46.094 17.168C46.1723 17.291 46.231 17.4236 46.3092 17.5561L46.4071 17.7549L46.4951 17.9537C46.5538 18.0862 46.6223 18.2188 46.6615 18.3608L46.8082 18.7773C46.8572 18.9193 46.8865 19.0519 46.9354 19.1939C46.9746 19.3359 47.0137 19.4779 47.0431 19.6104L47.1311 20.0364C47.1605 20.1784 47.1703 20.3204 47.1898 20.4624C47.2387 20.7464 47.2485 21.0305 47.2681 21.3145C47.2779 21.4565 47.2779 21.5985 47.2779 21.7405V22.1665C47.2681 22.4505 47.2485 22.725 47.2387 23.009C47.2094 23.2836 47.18 23.5581 47.1409 23.8327C47.092 24.1072 47.0528 24.3723 46.9941 24.6468L46.9746 24.7415L46.955 24.8077L46.5441 26.0006L46.3484 26.5875L46.1625 27.165C46.1038 27.3543 46.0451 27.5531 45.9864 27.7425C45.9276 27.9318 45.8689 28.1306 45.82 28.32C45.7124 28.7081 45.6243 29.0868 45.5461 29.4749C45.5069 29.6643 45.4678 29.8631 45.4384 30.0619C45.4091 30.2607 45.3797 30.45 45.3602 30.6488C45.3504 30.7435 45.3406 30.8476 45.3308 30.9423C45.321 31.0464 45.321 31.1411 45.3112 31.2358C45.3014 31.3399 45.3014 31.4346 45.3014 31.5387V31.9931L45.3112 32.1446L45.321 32.2961L45.3308 32.4475L45.3602 32.7599C45.3699 32.8641 45.3797 32.9682 45.3993 33.0723C45.4286 33.2806 45.4678 33.4889 45.5167 33.7066L45.595 34.0285C45.6243 34.1326 45.6537 34.2462 45.683 34.3598C45.595 34.2841 45.5069 34.2178 45.4189 34.1421C45.3308 34.0664 45.2525 33.9812 45.1645 33.896C45.0764 33.8108 45.0079 33.7256 44.9296 33.6404C44.8514 33.5552 44.7829 33.4605 44.7144 33.3658C44.5774 33.1765 44.4404 32.9777 44.323 32.7694C44.2643 32.6653 44.2056 32.5611 44.1567 32.457L44.0784 32.2961L44.0099 32.1351C43.961 32.0215 43.9121 31.9174 43.8729 31.8038L43.7555 31.463C43.7164 31.3494 43.687 31.2358 43.6577 31.1222C43.6283 31.0086 43.599 30.895 43.5696 30.7719C43.5207 30.5352 43.4816 30.308 43.4424 30.0713C43.4131 29.8347 43.3837 29.598 43.3739 29.3613C43.3446 28.888 43.3544 28.4146 43.3837 27.9508C43.4033 27.7141 43.4229 27.4869 43.4522 27.2597C43.4816 27.0325 43.5109 26.8053 43.55 26.5781C43.5892 26.3508 43.6283 26.1236 43.6772 25.9059C43.7262 25.6882 43.7751 25.461 43.8338 25.2432C43.8827 25.0255 43.9512 24.8077 44.0099 24.5995C44.0686 24.3817 44.1371 24.1735 44.1958 23.9652L44.1567 24.1356C44.186 23.8989 44.2252 23.6717 44.2643 23.435L44.3524 22.744L44.4111 22.0529C44.4209 21.8257 44.4404 21.5985 44.4404 21.3713C44.4404 21.1441 44.4502 20.9168 44.4404 20.6896L44.4306 20.3488L44.4111 20.0175C44.4111 19.9607 44.4013 19.9039 44.4013 19.8471L44.3817 19.6767C44.3719 19.5631 44.3621 19.4495 44.3426 19.3453L44.2937 19.014C44.2741 18.9004 44.2545 18.7963 44.2252 18.6827L44.1958 18.5217L44.1567 18.3608C44.1273 18.2566 44.1078 18.143 44.0686 18.0389C44.0393 17.9348 44.0099 17.8212 43.9708 17.717L43.8534 17.3952L43.7262 17.0828L43.5794 16.7703C43.5305 16.6662 43.4718 16.5621 43.4229 16.4579C43.3641 16.3538 43.3054 16.2591 43.2467 16.155C43.188 16.0509 43.1195 15.9562 43.0608 15.8521C42.9923 15.7574 42.9239 15.6533 42.8554 15.5586C42.7184 15.3598 42.5618 15.1704 42.3955 14.9811C42.3172 14.8864 42.2292 14.7918 42.1411 14.6971C42.0531 14.6024 41.965 14.5078 41.8671 14.4226C41.6617 14.2332 41.466 14.0628 41.2507 13.8924ZM67.9913 2.93921C67.7956 3.10015 67.6195 3.26108 67.4434 3.42202C67.3553 3.50722 67.2673 3.58296 67.189 3.66816C67.1107 3.75336 67.0227 3.8291 66.9444 3.92377L66.827 4.04684C66.7878 4.09417 66.7487 4.13204 66.7096 4.17937C66.6313 4.26457 66.5628 4.34978 66.4845 4.43498C66.416 4.52018 66.3475 4.61485 66.2693 4.70005L66.0736 4.96513L65.8877 5.2302L65.7116 5.50474L65.555 5.77928C65.5061 5.87395 65.4572 5.96862 65.4082 6.05382C65.3202 6.23369 65.2321 6.42303 65.1636 6.61237L65.1049 6.75437L65.056 6.89637C65.0267 6.99104 64.9875 7.08571 64.9679 7.18038C64.9484 7.27505 64.9092 7.36972 64.8897 7.46439L64.831 7.74839C64.8114 7.84306 64.8016 7.93773 64.7918 8.0324C64.7723 8.12707 64.7723 8.22174 64.7625 8.31641C64.7429 8.50574 64.7429 8.69508 64.7331 8.88442C64.7331 8.97909 64.7429 9.07376 64.7429 9.16843V9.31043C64.7429 9.35777 64.7527 9.4051 64.7625 9.45243L64.7918 9.73644L64.8408 10.0299C64.8603 10.2193 64.919 10.4181 64.9484 10.6074C64.968 10.7021 64.9973 10.7967 65.0169 10.9009C65.0462 10.9955 65.0658 11.0902 65.0951 11.1943C65.1539 11.3931 65.2223 11.5825 65.281 11.7718L65.2321 11.6488C65.33 11.876 65.4376 12.1032 65.5452 12.3398C65.6431 12.5765 65.7507 12.8132 65.8485 13.0499C66.054 13.5327 66.2399 14.0344 66.4062 14.5456C66.4943 14.8012 66.5628 15.0663 66.6411 15.3219C66.7096 15.587 66.7781 15.8521 66.827 16.1266C66.8563 16.2591 66.8759 16.4011 66.9052 16.5337C66.9248 16.6757 66.9444 16.8082 66.964 16.9502C67.0031 17.2248 67.0227 17.5088 67.0324 17.7833C67.0422 18.0673 67.0422 18.3419 67.0324 18.6259C67.0227 18.9099 66.9933 19.1844 66.9542 19.4684C66.915 19.743 66.8563 20.0175 66.7878 20.292C66.7193 20.5666 66.6411 20.8316 66.5432 21.0873C66.4943 21.2198 66.4454 21.3429 66.3867 21.4754L66.2106 21.8541C66.0834 22.1002 65.9562 22.3369 65.8094 22.5641C65.7409 22.6777 65.6626 22.7913 65.5844 22.9049L65.4669 23.0658L65.3593 23.2173C65.193 23.4256 65.0071 23.6338 64.8212 23.8232C64.8505 23.5581 64.9092 23.3025 64.9386 23.0469L64.9679 22.8576L64.9875 22.6682C64.9973 22.5452 65.0267 22.4221 65.0267 22.2895C65.0364 22.1665 65.056 22.0434 65.056 21.9203L65.0756 21.5511L65.0854 21.1914V20.8316C65.0756 20.595 65.0658 20.3583 65.0462 20.1216C65.0462 20.008 65.0267 19.885 65.0169 19.7714C65.0071 19.6578 64.9875 19.5441 64.9679 19.4305C64.9386 19.2033 64.8897 18.9761 64.8505 18.7489C64.8016 18.5217 64.7527 18.304 64.694 18.0862C64.6353 17.8685 64.5668 17.6413 64.4983 17.4236C64.4298 17.2058 64.3515 16.9881 64.2733 16.7703L64.1559 16.439L64.0287 16.1077L63.8917 15.7763L63.7547 15.445L63.4612 14.7823L63.1578 14.1101L62.8447 13.4285C62.7371 13.2013 62.6393 12.9647 62.5317 12.728L62.5023 12.6522L62.4925 12.6049C62.4142 12.3493 62.3458 12.1032 62.2773 11.8476C62.2479 11.715 62.2186 11.592 62.199 11.4594C62.1696 11.3269 62.1403 11.2038 62.1305 11.0713C62.0914 10.8062 62.0522 10.5411 62.0424 10.2666C62.0326 10.1341 62.0229 9.99205 62.0229 9.85951L62.0326 9.45243C62.0326 9.38617 62.0326 9.3199 62.0424 9.24416L62.062 9.03589C62.0816 8.90335 62.0914 8.76135 62.1109 8.62881C62.1598 8.35427 62.2088 8.07973 62.287 7.81466C62.3555 7.54959 62.4534 7.28451 62.5512 7.02891C62.6099 6.90584 62.6686 6.7733 62.7273 6.65023C62.786 6.52716 62.8545 6.40409 62.923 6.28102C62.9915 6.15795 63.06 6.04435 63.1383 5.93075L63.2557 5.76034C63.2948 5.70354 63.334 5.64674 63.3829 5.59941C63.5394 5.38167 63.7253 5.1734 63.9112 4.97459C64.0091 4.87992 64.0971 4.78525 64.195 4.69059C64.2928 4.60538 64.3907 4.51071 64.4983 4.42551C64.6059 4.34031 64.7038 4.26457 64.8114 4.17937L65.1343 3.95217C65.3593 3.81016 65.5844 3.67763 65.8094 3.56402C66.0442 3.45042 66.279 3.34629 66.5139 3.26108C66.7487 3.16641 66.9933 3.10015 67.2477 3.03388C67.4825 3.00548 67.7369 2.95814 67.9913 2.93921Z" fill="#774621"/>
</svg>
