<?xml version="1.0" encoding="UTF-8"?>
<!DOCTYPE svg PUBLIC "-//W3C//DTD SVG 1.1//EN" "http://www.w3.org/Graphics/SVG/1.1/DTD/svg11.dtd">
<svg xmlns="http://www.w3.org/2000/svg" version="1.1" width="477px" height="477px" style="shape-rendering:geometricPrecision; text-rendering:geometricPrecision; image-rendering:optimizeQuality; fill-rule:evenodd; clip-rule:evenodd" xmlns:xlink="http://www.w3.org/1999/xlink">
<g><path style="opacity:0.991" fill="#ed671f" d="M 112.5,38.5 C 133.836,38.3334 155.169,38.5 176.5,39C 185.223,42.8339 187.389,49.0006 183,57.5C 181.786,59.0488 180.286,60.2155 178.5,61C 161.17,61.4999 143.837,61.6666 126.5,61.5C 126.5,71.5 126.5,81.5 126.5,91.5C 135.173,91.3336 143.84,91.5002 152.5,92C 160.725,96.1926 162.558,102.359 158,110.5C 156.421,112.041 154.587,113.208 152.5,114C 143.84,114.5 135.173,114.666 126.5,114.5C 126.5,125.167 126.5,135.833 126.5,146.5C 143.837,146.333 161.17,146.5 178.5,147C 185.039,150.915 186.872,156.415 184,163.5C 182.039,166.135 179.539,167.969 176.5,169C 159.837,169.5 143.17,169.667 126.5,169.5C 126.5,179.5 126.5,189.5 126.5,199.5C 135.506,199.334 144.506,199.5 153.5,200C 160.115,203.843 161.948,209.343 159,216.5C 157.457,218.378 155.624,219.878 153.5,221C 144.582,222.414 135.582,222.914 126.5,222.5C 126.5,232.833 126.5,243.167 126.5,253.5C 143.17,253.333 159.837,253.5 176.5,254C 185.194,257.745 187.361,263.912 183,272.5C 181.421,274.041 179.587,275.208 177.5,276C 160.503,276.5 143.503,276.667 126.5,276.5C 126.5,286.5 126.5,296.5 126.5,306.5C 135.173,306.334 143.84,306.5 152.5,307C 160.725,311.193 162.558,317.359 158,325.5C 156.421,327.041 154.587,328.208 152.5,329C 143.84,329.5 135.173,329.666 126.5,329.5C 126.5,340.167 126.5,350.833 126.5,361.5C 143.837,361.333 161.17,361.5 178.5,362C 186.923,367.873 187.589,374.54 180.5,382C 178.913,382.862 177.246,383.529 175.5,384C 159.17,384.5 142.837,384.667 126.5,384.5C 126.5,394.5 126.5,404.5 126.5,414.5C 143.837,414.333 161.17,414.5 178.5,415C 185.039,418.915 186.872,424.415 184,431.5C 182.039,434.135 179.539,435.969 176.5,437C 155.167,437.667 133.833,437.667 112.5,437C 108.427,435.928 105.593,433.428 104,429.5C 103.333,301.833 103.333,174.167 104,46.5C 105.773,42.5596 108.606,39.893 112.5,38.5 Z"/></g>
<g><path style="opacity:0.989" fill="#fad76e" d="M 292.5,38.5 C 320.408,39.2454 337.242,53.2454 343,80.5C 344.326,101.684 335.826,117.518 317.5,128C 292.405,137.74 271.905,131.907 256,110.5C 246.285,91.3207 247.618,72.9874 260,55.5C 268.778,45.6962 279.611,40.0295 292.5,38.5 Z"/></g>
<g><path style="opacity:0.993" fill="#fad76e" d="M 253.5,142.5 C 260.175,142.334 266.842,142.5 273.5,143C 276.102,143.883 278.269,145.383 280,147.5C 285.333,160.167 290.667,172.833 296,185.5C 301.924,172.647 307.591,159.647 313,146.5C 317.903,143.065 323.403,141.732 329.5,142.5C 352.416,141.694 366.582,152.361 372,174.5C 372.667,221.5 372.667,268.5 372,315.5C 368.628,322.268 363.128,324.935 355.5,323.5C 355.981,359.562 355.481,395.562 354,431.5C 352.039,434.135 349.539,435.969 346.5,437C 313.167,437.667 279.833,437.667 246.5,437C 242.104,436.27 239.27,433.77 238,429.5C 237.5,394.168 237.333,358.835 237.5,323.5C 230.262,324.93 224.762,322.596 221,316.5C 220.333,268.167 220.333,219.833 221,171.5C 225.864,155.007 236.698,145.34 253.5,142.5 Z"/></g>
</svg>
