<svg width="123" height="125" viewBox="0 0 123 125" fill="none" xmlns="http://www.w3.org/2000/svg">
<path d="M36.3552 74.2903C36.3552 74.2903 36.861 81.302 36.6565 84.8704C36.4413 88.4388 36 91.423 36 91.423L39.444 118.395L39.627 121.212C39.627 121.212 45.6863 124.603 58.2785 124.603C77.156 124.603 85.4862 121.703 88.306 115.891C90.5769 111.185 86.6163 100.521 85.8091 96.8487C83.1508 84.7452 84.6898 76.0015 84.6898 76.0015L36.3552 74.2903Z" fill="#C4A878"/>
<path d="M30.3779 113.761C31.7123 119.339 39.7836 121.5 39.7836 121.5C39.7836 121.5 51.5326 122.122 58.9747 121.174C66.6121 120.195 72.9043 118.503 73.5552 114.322C74.2061 110.141 74.0325 107.327 73.7288 102.902C73.5986 100.944 73.3816 95.5606 73.3816 95.5606C73.3816 95.5606 64.7136 95.9786 53.1273 95.1119C41.7146 94.2554 35.531 91.7063 35.531 91.7063C35.531 91.7063 33.8928 98.7724 32.7429 101.607C31.5821 104.431 29.0435 108.184 30.3779 113.761Z" fill="#E8D4AF"/>
<path d="M60.1492 0.755932C18.148 0.704343 -0.708638 27.9949 0.0203259 55.2133C0.67425 79.6768 39.4916 82.7102 58.8628 82.9785C87.7748 83.3809 122.315 77.7371 122.979 54.5117C123.741 27.5203 103.362 0.797204 60.1492 0.755932Z" fill="#FC7A3A"/>
</svg>
