<svg width="155" height="155" viewBox="0 0 155 155" fill="none" xmlns="http://www.w3.org/2000/svg">
<mask id="path-1-inside-1_150_2064" fill="white">
<path d="M22.375 4.84375C23.6596 4.84375 24.8917 5.35407 25.8 6.26245C26.7084 7.17083 27.2188 8.40286 27.2188 9.6875V150.156H17.5312V9.6875C17.5312 8.40286 18.0416 7.17083 18.95 6.26245C19.8583 5.35407 21.0904 4.84375 22.375 4.84375Z"/>
</mask>
<path d="M22.375 4.84375V-5.15625V4.84375ZM27.2188 150.156V160.156C32.7416 160.156 37.2188 155.679 37.2188 150.156H27.2188ZM17.5312 150.156H7.53125C7.53125 155.679 12.0084 160.156 17.5313 160.156L17.5312 150.156ZM22.375 14.8438C21.0075 14.8438 19.696 14.3005 18.729 13.3335L32.8711 -0.808617C30.0874 -3.59236 26.3118 -5.15625 22.375 -5.15625V14.8438ZM18.729 13.3335C17.762 12.3665 17.2188 11.055 17.2188 9.6875H37.2188C37.2188 5.75069 35.6549 1.97512 32.8711 -0.808617L18.729 13.3335ZM17.2188 9.6875V150.156H37.2188V9.6875H17.2188ZM27.2188 140.156H17.5312V160.156H27.2188V140.156ZM27.5312 150.156V9.6875H7.53125V150.156H27.5312ZM27.5312 9.6875C27.5312 11.055 26.988 12.3665 26.021 13.3335L11.8789 -0.808617C9.09514 1.97513 7.53125 5.75069 7.53125 9.6875H27.5312ZM26.021 13.3335C25.054 14.3005 23.7425 14.8438 22.375 14.8438V-5.15625C18.4382 -5.15625 14.6626 -3.59236 11.8789 -0.808617L26.021 13.3335Z" fill="#FC7A3A" mask="url(#path-1-inside-1_150_2064)"/>
<mask id="path-3-inside-2_150_2064" fill="white">
<path d="M135.625 4.84375C136.91 4.84375 138.142 5.35407 139.05 6.26245C139.958 7.17083 140.469 8.40286 140.469 9.6875V150.156H130.781V9.6875C130.781 8.40286 131.292 7.17083 132.2 6.26245C133.108 5.35407 134.34 4.84375 135.625 4.84375Z"/>
</mask>
<path d="M135.625 4.84375V-5.15625V4.84375ZM140.469 150.156V160.156C145.992 160.156 150.469 155.679 150.469 150.156H140.469ZM130.781 150.156H120.781C120.781 155.679 125.258 160.156 130.781 160.156V150.156ZM135.625 14.8438C134.257 14.8438 132.946 14.3005 131.979 13.3335L146.121 -0.808617C143.337 -3.59237 139.562 -5.15625 135.625 -5.15625V14.8438ZM131.979 13.3335C131.012 12.3665 130.469 11.055 130.469 9.6875H150.469C150.469 5.75071 148.905 1.97514 146.121 -0.808617L131.979 13.3335ZM130.469 9.6875V150.156H150.469V9.6875H130.469ZM140.469 140.156H130.781V160.156H140.469V140.156ZM140.781 150.156V9.6875H120.781V150.156H140.781ZM140.781 9.6875C140.781 11.055 140.238 12.3665 139.271 13.3335L125.129 -0.808617C122.345 1.97514 120.781 5.75071 120.781 9.6875H140.781ZM139.271 13.3335C138.304 14.3005 136.993 14.8438 135.625 14.8438V-5.15625C131.688 -5.15625 127.913 -3.59237 125.129 -0.808617L139.271 13.3335Z" fill="#FC7A3A" mask="url(#path-3-inside-2_150_2064)"/>
<path d="M33.9062 36.3281H121.094" stroke="#FC7A3A" stroke-width="10" stroke-linejoin="round"/>
<path d="M130.781 31.4844H121.094V41.1719H130.781" stroke="#FC7A3A" stroke-width="15" stroke-linejoin="round"/>
<path d="M26.6406 31.4844H33.9062V41.1719H26.6406" stroke="#FC7A3A" stroke-width="15" stroke-linejoin="round"/>
</svg>
