<?xml version="1.0" encoding="UTF-8"?>
<!DOCTYPE svg PUBLIC "-//W3C//DTD SVG 1.1//EN" "http://www.w3.org/Graphics/SVG/1.1/DTD/svg11.dtd">
<svg xmlns="http://www.w3.org/2000/svg" version="1.1" width="397px" height="397px" style="shape-rendering:geometricPrecision; text-rendering:geometricPrecision; image-rendering:optimizeQuality; fill-rule:evenodd; clip-rule:evenodd" xmlns:xlink="http://www.w3.org/1999/xlink">
<g><path style="opacity:0.996" fill="#45ae8e" d="M 190.5,-0.5 C 195.167,-0.5 199.833,-0.5 204.5,-0.5C 213.083,2.24829 218.916,7.91495 222,16.5C 223.44,32.7764 223.94,49.1097 223.5,65.5C 222.167,81.5 222.167,97.5 223.5,113.5C 223.87,121.903 223.37,130.236 222,138.5C 218.867,144.983 213.701,148.317 206.5,148.5C 200.833,148.5 195.167,148.5 189.5,148.5C 182.299,148.317 177.133,144.983 174,138.5C 172.594,130.251 172.094,121.917 172.5,113.5C 173.833,97.5 173.833,81.5 172.5,65.5C 172.06,49.1097 172.56,32.7764 174,16.5C 177.019,8.31563 182.519,2.64896 190.5,-0.5 Z"/></g>
<g><path style="opacity:0.987" fill="#fdcd54" d="M 172.5,65.5 C 173.833,81.5 173.833,97.5 172.5,113.5C 172.5,103.167 172.5,92.8333 172.5,82.5C 151.833,82.5 131.167,82.5 110.5,82.5C 98.8333,82.5 87.1667,82.5 75.5,82.5C 67.8261,82.6664 60.1594,82.4997 52.5,82C 48.812,80.4873 45.1454,78.9873 41.5,77.5C 33.37,70.2725 30.5367,61.2725 33,50.5C 39.3996,34.7189 50.8996,29.2189 67.5,34C 79.9659,40.5574 84.6326,50.724 81.5,64.5C 111.826,65.4998 142.159,65.8332 172.5,65.5 Z M 55.5,49.5 C 63.357,50.1648 66.1904,54.1648 64,61.5C 57.0311,67.4467 52.1978,65.9467 49.5,57C 50.2336,53.4382 52.2336,50.9382 55.5,49.5 Z"/></g>
<g><path style="opacity:0.987" fill="#fecd54" d="M 354.5,77.5 C 343.673,82.0707 332.34,83.7374 320.5,82.5C 308.833,82.5 297.167,82.5 285.5,82.5C 264.833,82.5 244.167,82.5 223.5,82.5C 223.5,92.8333 223.5,103.167 223.5,113.5C 222.167,97.5 222.167,81.5 223.5,65.5C 253.841,65.8332 284.174,65.4998 314.5,64.5C 311.709,50.9149 316.376,40.7482 328.5,34C 345.1,29.2189 356.6,34.7189 363,50.5C 365.297,61.211 362.464,70.211 354.5,77.5 Z M 336.5,49.5 C 344.527,49.8992 347.36,53.8992 345,61.5C 338.325,67.4288 333.492,66.0955 330.5,57.5C 331.401,53.9421 333.401,51.2754 336.5,49.5 Z"/></g>
<g><path style="opacity:0.982" fill="#e5e8ec" d="M 41.5,77.5 C 45.1454,78.9873 48.812,80.4873 52.5,82C 60.1594,82.4997 67.8261,82.6664 75.5,82.5C 88.628,129.218 101.961,175.885 115.5,222.5C 109.5,222.5 103.5,222.5 97.5,222.5C 84.4982,176.997 70.9982,131.663 57,86.5C 43.5228,131.763 30.3561,177.096 17.5,222.5C 11.5,222.5 5.5,222.5 -0.5,222.5C -0.5,221.5 -0.5,220.5 -0.5,219.5C 13.6729,172.305 27.6729,124.972 41.5,77.5 Z M 97.5,222.5 C 70.8333,222.5 44.1667,222.5 17.5,222.5C 30.3561,177.096 43.5228,131.763 57,86.5C 70.9982,131.663 84.4982,176.997 97.5,222.5 Z"/></g>
<g><path style="opacity:0.982" fill="#e5e8ec" d="M 354.5,77.5 C 368.327,124.972 382.327,172.305 396.5,219.5C 396.5,220.5 396.5,221.5 396.5,222.5C 390.5,222.5 384.5,222.5 378.5,222.5C 365.476,177.068 352.142,131.734 338.5,86.5C 324.962,131.781 311.628,177.114 298.5,222.5C 292.5,222.5 286.5,222.5 280.5,222.5C 294.039,175.885 307.372,129.218 320.5,82.5C 332.34,83.7374 343.673,82.0707 354.5,77.5 Z M 378.5,222.5 C 351.833,222.5 325.167,222.5 298.5,222.5C 311.628,177.114 324.962,131.781 338.5,86.5C 352.142,131.734 365.476,177.068 378.5,222.5 Z"/></g>
<g><path style="opacity:0.978" fill="#f5ba41" d="M 110.5,82.5 C 131.167,82.5 151.833,82.5 172.5,82.5C 172.5,92.8333 172.5,103.167 172.5,113.5C 149.025,108.429 128.358,98.0957 110.5,82.5 Z"/></g>
<g><path style="opacity:0.984" fill="#f6ba41" d="M 285.5,82.5 C 267.911,98.6279 247.244,108.961 223.5,113.5C 223.5,103.167 223.5,92.8333 223.5,82.5C 244.167,82.5 264.833,82.5 285.5,82.5 Z"/></g>
<g><path style="opacity:0.97" fill="#434a54" d="M 189.5,148.5 C 195.167,148.5 200.833,148.5 206.5,148.5C 206.5,187.167 206.5,225.833 206.5,264.5C 200.833,264.5 195.167,264.5 189.5,264.5C 189.5,225.833 189.5,187.167 189.5,148.5 Z"/></g>
<g><path style="opacity:0.99" fill="#fece54" d="M -0.5,222.5 C 5.5,222.5 11.5,222.5 17.5,222.5C 44.1667,222.5 70.8333,222.5 97.5,222.5C 103.5,222.5 109.5,222.5 115.5,222.5C 114.901,248.199 102.901,266.365 79.5,277C 50.2478,286.359 26.4145,278.859 8,254.5C 4.05686,247.813 1.22353,240.813 -0.5,233.5C -0.5,229.833 -0.5,226.167 -0.5,222.5 Z"/></g>
<g><path style="opacity:0.99" fill="#fece54" d="M 280.5,222.5 C 286.5,222.5 292.5,222.5 298.5,222.5C 325.167,222.5 351.833,222.5 378.5,222.5C 384.5,222.5 390.5,222.5 396.5,222.5C 396.5,226.167 396.5,229.833 396.5,233.5C 388.471,262.841 369.137,278.841 338.5,281.5C 309.625,279.654 290.792,264.987 282,237.5C 280.84,232.566 280.34,227.566 280.5,222.5 Z"/></g>
<g><path style="opacity:0.992" fill="#fecd53" d="M 189.5,264.5 C 195.167,264.5 200.833,264.5 206.5,264.5C 218.017,267.849 225.85,275.182 230,286.5C 231.439,306.454 231.939,326.454 231.5,346.5C 209.167,346.5 186.833,346.5 164.5,346.5C 164.049,326.779 164.549,307.112 166,287.5C 169.724,275.609 177.558,267.942 189.5,264.5 Z"/></g>
<g><path style="opacity:0.988" fill="#656d77" d="M 164.5,346.5 C 186.833,346.5 209.167,346.5 231.5,346.5C 255.899,346.029 280.232,346.529 304.5,348C 308,350.167 310.833,353 313,356.5C 314.356,364.095 314.856,371.762 314.5,379.5C 236.833,379.5 159.167,379.5 81.5,379.5C 81.1439,371.762 81.6439,364.095 83,356.5C 85.1667,353 88,350.167 91.5,348C 115.768,346.529 140.101,346.029 164.5,346.5 Z"/></g>
<g><path style="opacity:0.994" fill="#434a54" d="M 81.5,379.5 C 159.167,379.5 236.833,379.5 314.5,379.5C 321.615,379.075 328.615,379.575 335.5,381C 340.879,386.453 340.546,391.619 334.5,396.5C 243.5,396.5 152.5,396.5 61.5,396.5C 55.4935,391.67 55.1602,386.503 60.5,381C 67.3846,379.575 74.3846,379.075 81.5,379.5 Z"/></g>
</svg>
