<?xml version="1.0" encoding="UTF-8"?>
<!DOCTYPE svg PUBLIC "-//W3C//DTD SVG 1.1//EN" "http://www.w3.org/Graphics/SVG/1.1/DTD/svg11.dtd">
<svg xmlns="http://www.w3.org/2000/svg" version="1.1" width="474px" height="333px" style="shape-rendering:geometricPrecision; text-rendering:geometricPrecision; image-rendering:optimizeQuality; fill-rule:evenodd; clip-rule:evenodd" xmlns:xlink="http://www.w3.org/1999/xlink">
<g><path style="opacity:0.996" fill="#fa7b45" d="M 123.5,-0.5 C 129.5,-0.5 135.5,-0.5 141.5,-0.5C 165.694,1.78687 188.028,9.45354 208.5,22.5C 235.936,42.2882 253.936,68.6215 262.5,101.5C 274.374,171.082 249.374,222.415 187.5,255.5C 177.59,259.914 167.257,262.914 156.5,264.5C 156.814,277.913 156.481,291.246 155.5,304.5C 153.164,306.391 150.498,306.891 147.5,306C 135.605,293.937 123.605,282.104 111.5,270.5C 110.04,268.537 108.373,266.704 106.5,265C 99.0599,263.13 91.7266,260.964 84.5,258.5C 36.2905,237.628 7.9572,201.295 -0.5,149.5C -0.5,138.833 -0.5,128.167 -0.5,117.5C 9.43381,59.7221 42.4338,21.8888 98.5,4C 106.915,2.16011 115.248,0.660113 123.5,-0.5 Z"/></g>
<g><path style="opacity:0.139" fill="#010000" d="M 208.5,22.5 C 243.148,38.8147 266.482,65.148 278.5,101.5C 273.167,101.5 267.833,101.5 262.5,101.5C 253.936,68.6215 235.936,42.2882 208.5,22.5 Z"/></g>
<g><path style="opacity:1" fill="#ec5f22" d="M 121.5,31.5 C 170.29,29.4629 205.456,50.1296 227,93.5C 243.43,139.369 233.93,178.869 198.5,212C 166.471,236.339 131.471,241.673 93.5,228C 50.2442,206.711 29.4109,171.878 31,123.5C 37.754,78.7485 62.5874,49.2485 105.5,35C 110.989,33.9253 116.322,32.7586 121.5,31.5 Z"/></g>
<g><path style="opacity:1" fill="#fffcfa" d="M 122.5,63.5 C 150.882,60.7441 169.715,72.7441 179,99.5C 182.385,127.584 170.885,146.418 144.5,156C 140.995,159.319 139.495,163.486 140,168.5C 135.239,173.812 130.572,173.812 126,168.5C 123.731,157.887 126.898,149.387 135.5,143C 142.276,140.446 148.609,137.113 154.5,133C 170.408,111.966 167.075,94.6331 144.5,81C 118.488,75.4339 103.988,85.9339 101,112.5C 98.5647,117.224 94.7314,118.724 89.5,117C 86.3843,114.6 85.0509,111.433 85.5,107.5C 88.4914,84.8516 100.825,70.185 122.5,63.5 Z"/></g>
<g><path style="opacity:0.996" fill="#79e5b4" d="M 278.5,101.5 C 330.501,101.333 382.501,101.5 434.5,102C 441.244,102.934 446.577,106.1 450.5,111.5C 451.927,114.024 453.094,116.69 454,119.5C 454.667,170.833 454.667,222.167 454,273.5C 451.167,281.667 445.667,287.167 437.5,290C 393.501,290.5 349.501,290.667 305.5,290.5C 305.807,300.582 305.474,310.582 304.5,320.5C 302.399,322.109 300.065,322.609 297.5,322C 290.298,314.631 282.965,307.464 275.5,300.5C 272.704,297.203 269.704,294.036 266.5,291C 247.836,290.5 229.17,290.333 210.5,290.5C 198.64,289.969 191.307,283.969 188.5,272.5C 259.832,237.511 289.832,180.511 278.5,101.5 Z"/></g>
<g><path style="opacity:1" fill="#70cda3" d="M 262.5,101.5 C 267.833,101.5 273.167,101.5 278.5,101.5C 289.832,180.511 259.832,237.511 188.5,272.5C 188.167,272.5 187.833,272.5 187.5,272.5C 187.5,266.833 187.5,261.167 187.5,255.5C 249.374,222.415 274.374,171.082 262.5,101.5 Z"/></g>
<g><path style="opacity:0.147" fill="#000000" d="M 450.5,111.5 C 461.705,112.583 469.372,118.249 473.5,128.5C 473.5,180.167 473.5,231.833 473.5,283.5C 470.351,291.481 464.684,296.981 456.5,300C 412.501,300.5 368.501,300.667 324.5,300.5C 324.666,310.172 324.5,319.839 324,329.5C 322.855,330.636 321.688,331.636 320.5,332.5C 319.167,332.5 317.833,332.5 316.5,332.5C 312.833,328.167 308.833,324.167 304.5,320.5C 305.474,310.582 305.807,300.582 305.5,290.5C 349.501,290.667 393.501,290.5 437.5,290C 445.667,287.167 451.167,281.667 454,273.5C 454.667,222.167 454.667,170.833 454,119.5C 453.094,116.69 451.927,114.024 450.5,111.5 Z"/></g>
<g><path style="opacity:1" fill="#fdfefe" d="M 395.5,149.5 C 405.059,148.546 408.559,152.546 406,161.5C 378.805,189.028 351.305,216.195 323.5,243C 321.029,243.706 318.695,243.373 316.5,242C 302.304,228.138 288.471,213.971 275,199.5C 274.061,190.434 277.894,187.268 286.5,190C 298,201.5 309.5,213 321,224.5C 346.035,199.632 370.868,174.632 395.5,149.5 Z"/></g>
<g><path style="opacity:1" fill="#fef9f6" d="M 129.5,188.5 C 137.709,187.872 141.209,191.539 140,199.5C 135.829,205.729 131.163,206.062 126,200.5C 124.593,195.599 125.76,191.599 129.5,188.5 Z"/></g>
<g><path style="opacity:0.146" fill="#000000" d="M 187.5,255.5 C 187.5,261.167 187.5,266.833 187.5,272.5C 183.63,273.426 179.797,274.426 176,275.5C 175.667,288.167 175.333,300.833 175,313.5C 172.79,316.29 169.956,317.123 166.5,316C 162.63,312.298 158.963,308.464 155.5,304.5C 156.481,291.246 156.814,277.913 156.5,264.5C 167.257,262.914 177.59,259.914 187.5,255.5 Z"/></g>
<g><path style="opacity:0.122" fill="#010000" d="M 84.5,258.5 C 91.7266,260.964 99.0599,263.13 106.5,265C 108.373,266.704 110.04,268.537 111.5,270.5C 101.586,268.373 92.586,264.373 84.5,258.5 Z"/></g>
<g><path style="opacity:0.144" fill="#000000" d="M 210.5,290.5 C 229.17,290.333 247.836,290.5 266.5,291C 269.704,294.036 272.704,297.203 275.5,300.5C 258.163,300.667 240.83,300.5 223.5,300C 218.069,298.289 213.735,295.123 210.5,290.5 Z"/></g>
</svg>
