<svg width="390" height="413" viewBox="0 0 390 413" fill="none" xmlns="http://www.w3.org/2000/svg">
<path d="M92.3984 323.805C89.1562 323.094 86.5625 322.383 83.3203 320.961C80.0781 319.539 77.4843 318.828 74.8906 317.406C69.0547 314.562 63.8672 311.008 58.6797 306.742C48.3047 298.922 39.875 288.258 33.3906 275.461C26.9062 263.375 23.0156 249.156 22.3672 235.648C21.7187 228.539 22.3672 222.141 23.0156 215.031C23.664 211.477 24.3125 208.633 24.9609 205.078C25.6093 201.523 26.9062 198.68 27.5547 195.125L28.2031 205.078C28.2031 208.633 28.8515 211.477 29.5 215.031C30.1484 221.43 31.4453 227.828 32.7422 233.516C35.3359 245.602 39.2265 256.977 45.0625 267.641C50.8984 278.305 57.3828 288.258 65.8125 297.5C69.7031 301.766 74.2422 306.031 78.7812 310.297C80.7265 312.43 83.3203 314.562 85.914 316.695L92.3984 323.805Z" fill="#5D6265"/>
<path d="M90.4531 349.398C88.5078 350.82 85.9141 351.531 83.3203 352.242C80.7266 352.953 78.7812 353.664 76.1875 353.664C71.6484 354.375 66.4609 355.086 61.2734 354.375C51.5469 353.664 41.1719 350.82 32.7422 345.844C23.6641 340.867 15.8828 333.047 10.6953 323.805C8.10156 319.539 5.50781 314.562 3.5625 309.586C2.91406 307.453 2.26562 304.609 1.61719 301.766C1.61719 299.633 0.96875 297.5 0.96875 294.656C2.91406 296.789 4.21094 298.922 5.50781 300.344C7.45313 302.477 8.75 304.609 10.0469 306.031C13.2891 309.586 15.8828 313.141 19.125 315.984C25.6094 322.383 32.0938 328.07 39.875 332.336C47.0078 336.602 55.4375 340.156 63.2188 343C67.1094 344.422 71.6484 345.133 76.1875 346.555C78.1328 347.266 80.7266 347.266 82.6719 347.977C85.9141 348.688 87.8594 348.687 90.4531 349.398Z" fill="#5D6265"/>
<path d="M237 3.88281C240.242 4.59375 242.836 6.01562 246.078 7.4375C249.32 8.85938 251.914 10.2812 254.508 11.7031C260.344 15.2578 265.531 18.8125 270.719 23.0781C281.094 31.6094 289.523 42.9844 295.359 55.7812C301.195 68.5781 304.437 82.7969 304.437 96.3047C304.437 103.414 303.789 109.812 302.492 116.922C301.844 120.477 301.195 123.32 299.898 126.875C298.602 130.43 297.953 133.273 296.656 136.117L296.008 126.164C296.008 122.609 296.008 119.766 295.359 116.211L293.414 97.0156C291.469 84.9297 287.578 72.8438 282.391 61.4688C277.203 50.0938 270.719 40.1406 262.938 30.8984C259.047 25.9219 254.508 21.6563 250.617 16.6797C248.672 14.5469 246.078 12.4141 243.484 10.2813L237 3.88281Z" fill="#5D6265"/>
<path d="M293.414 1.03906C296.008 1.75 297.953 2.46094 299.898 3.88281C301.844 4.59375 304.438 6.01563 306.383 7.4375C310.273 10.2813 314.164 13.125 318.055 16.6797C325.188 23.7891 331.023 32.3203 334.266 42.2734C338.156 52.2266 339.453 62.8906 338.156 73.5547C337.508 78.5313 336.211 83.5078 334.914 88.4844C334.266 90.6172 332.969 93.4609 332.32 95.5937C331.023 97.7266 330.375 99.8594 328.43 101.992V87.7734C328.43 82.7969 327.781 78.5312 327.781 74.2656C326.484 65.0234 325.188 56.4922 321.945 48.6719C318.703 40.1406 314.813 33.0312 310.273 25.2109C307.68 21.6562 305.086 17.3906 302.492 13.8359C301.195 11.7031 299.898 10.2812 297.953 8.14844C296.656 4.59375 294.711 2.46094 293.414 1.03906Z" fill="#5D6265"/>
<path d="M52.8437 106.969C39.875 113.367 35.3359 130.43 41.1719 144.648L122.875 331.625L168.266 308.164L86.5625 120.477C80.7265 106.258 65.8125 99.8594 52.8437 106.969Z" fill="#FFDD67"/>
<path d="M267.477 255.555L315.461 230.672L222.086 17.3906C215.602 3.17189 200.039 -3.22655 186.422 3.88283C173.453 10.9922 167.617 28.0547 174.102 42.9844L267.477 255.555Z" fill="#FFDD67"/>
<path d="M187.07 3.17192C185.773 3.88286 184.477 4.59379 183.18 6.01567C195.5 2.46098 208.469 8.85942 214.305 21.6563L307.68 234.938L316.109 230.672L222.734 17.3907C216.25 2.46099 200.688 -3.93745 187.07 3.17192Z" fill="#EBA352"/>
<path d="M168.266 307.453L218.195 281.148L122.875 63.6016C116.391 48.6719 99.5313 41.5625 85.9141 48.6719C72.2969 55.7813 66.461 74.2656 72.9453 89.1953L168.266 307.453Z" fill="#FFDD67"/>
<path d="M85.9141 49.3829C84.6172 50.0938 83.3203 50.8048 82.0234 52.2266C94.3438 48.672 108.609 55.0704 114.445 68.5782L173.453 204.367L187.719 213.609L122.875 64.3126C116.391 48.672 100.18 42.2735 85.9141 49.3829Z" fill="#EBA352"/>
<path d="M210.414 264.086L260.344 237.781L165.023 20.2344C158.539 5.30475 141.68 -1.80463 128.062 6.01568C114.445 13.1251 108.609 31.6094 115.094 46.5391L210.414 264.086Z" fill="#FFDD67"/>
<path d="M128.063 5.30477C126.766 6.0157 125.469 7.43758 124.172 8.14852C136.492 4.59383 150.758 10.9923 156.594 24.5001L223.383 178.063L237.648 187.305L165.023 20.2345C158.539 4.59383 141.68 -1.80461 128.063 5.30477Z" fill="#EBA352"/>
<path d="M52.8438 106.969C51.5469 107.68 50.25 108.391 48.9531 109.813C60.625 106.258 72.9453 112.656 78.1328 125.453L126.766 237.07L141.031 246.313L86.5625 121.188C80.7266 106.258 65.8125 99.8594 52.8438 106.969Z" fill="#EBA352"/>
<path d="M382.25 85.6407C364.742 70.711 336.211 87.0625 321.945 138.25C312.219 173.797 310.922 184.461 290.172 195.125L278.5 168.82C278.5 168.82 94.3438 266.219 101.477 281.859C101.477 281.859 123.523 357.219 161.133 392.055C216.898 444.664 347.234 388.5 353.07 252.711C356.313 173.797 401.055 101.992 382.25 85.6407Z" fill="#FFDD67"/>
<path d="M382.25 85.6406C379.008 82.7969 375.117 81.375 371.227 80.6641C371.875 81.375 373.172 81.375 373.82 82.0859C393.273 98.4375 373.172 136.117 362.148 170.242C353.07 197.258 345.289 224.984 346.586 252C351.773 370.016 243.484 426.18 178.641 404.852C242.188 434 360.203 378.547 355.016 255.555C353.719 228.539 360.852 202.234 370.578 173.797C380.953 139.672 401.055 101.992 382.25 85.6406Z" fill="#EBA352"/>
<path d="M296.008 192.281C255.805 197.258 196.797 260.531 238.297 329.492C207.82 259.82 257.75 212.898 289.523 196.547C292.766 193.703 296.008 192.281 296.008 192.281Z" fill="#EBA352"/>
</svg>
