<?xml version="1.0" standalone="no"?>
<!DOCTYPE svg PUBLIC "-//W3C//DTD SVG 20010904//EN"
 "http://www.w3.org/TR/2001/REC-SVG-20010904/DTD/svg10.dtd">
<svg version="1.0" xmlns="http://www.w3.org/2000/svg"
 width="236.000000pt" height="236.000000pt" viewBox="0 0 236.000000 236.000000"
 preserveAspectRatio="xMidYMid meet">

<g transform="translate(0.000000,236.000000) scale(0.100000,-0.100000)"
fill="#000000" stroke="none">
<path d="M1202 2335 c0 -16 2 -22 5 -12 2 9 2 23 0 30 -3 6 -5 -1 -5 -18z"/>
<path d="M1231 2164 c0 -11 3 -14 6 -6 3 7 2 16 -1 19 -3 4 -6 -2 -5 -13z"/>
<path d="M984 2037 c3 -10 6 -40 6 -65 0 -29 4 -42 9 -34 4 7 7 -24 5 -70 -3
-77 -2 -80 7 -33 14 75 21 184 10 160 l-10 -20 -1 20 c0 11 -8 29 -17 40 -14
18 -15 18 -9 2z"/>
<path d="M1233 1993 c-16 -6 -16 -48 1 -133 l12 -65 7 55 c13 107 7 152 -20
143z"/>
<path d="M1401 724 c0 -11 3 -14 6 -6 3 7 2 16 -1 19 -3 4 -6 -2 -5 -13z"/>
<path d="M1402 660 c0 -19 2 -27 5 -17 2 9 2 25 0 35 -3 9 -5 1 -5 -18z"/>
<path d="M851 644 c0 -11 3 -14 6 -6 3 7 2 16 -1 19 -3 4 -6 -2 -5 -13z"/>
<path d="M853 510 c0 -30 2 -43 4 -27 2 15 2 39 0 55 -2 15 -4 2 -4 -28z"/>
<path d="M1398 465 c-3 -14 -1 -25 3 -25 5 0 9 11 9 25 0 14 -2 25 -4 25 -2 0
-6 -11 -8 -25z"/>
</g>
</svg>
