<?xml version="1.0" standalone="no"?>
<!DOCTYPE svg PUBLIC "-//W3C//DTD SVG 20010904//EN"
 "http://www.w3.org/TR/2001/REC-SVG-20010904/DTD/svg10.dtd">
<svg version="1.0" xmlns="http://www.w3.org/2000/svg"
 width="228.000000pt" height="228.000000pt" viewBox="0 0 228.000000 228.000000"
 preserveAspectRatio="xMidYMid meet">

<g transform="translate(0.000000,228.000000) scale(0.100000,-0.100000)"
fill="#000000" stroke="none">
<path d="M1216 1277 c3 -10 9 -15 12 -12 3 3 0 11 -7 18 -10 9 -11 8 -5 -6z"/>
<path d="M1427 599 c4 -13 8 -18 11 -10 2 7 -1 18 -6 23 -8 8 -9 4 -5 -13z"/>
<path d="M777 444 c-3 -3 -3 -22 0 -41 5 -27 3 -34 -6 -28 -7 4 -11 16 -8 26
7 25 -9 24 -23 0 -14 -26 -13 -31 5 -25 9 4 16 -3 21 -21 9 -37 17 -23 24 40
6 51 2 64 -13 49z"/>
<path d="M706 356 c7 -18 -18 -70 -61 -128 l-35 -48 20 -20 c11 -11 20 -28 20
-37 0 -15 -2 -14 -18 3 -11 11 -21 26 -24 34 -3 9 -9 1 -15 -20 -10 -37 -7
-53 6 -32 12 19 40 4 34 -19 -3 -10 -1 -19 5 -19 13 0 23 53 16 93 -4 23 -3
28 4 18 9 -12 12 -10 17 10 3 14 19 38 35 53 26 24 29 33 25 67 -4 26 -2 38 5
34 5 -3 10 -2 10 3 0 10 -23 22 -41 22 -4 0 -6 -6 -3 -14z m24 -46 c0 -5 -2
-10 -4 -10 -3 0 -8 5 -11 10 -3 6 -1 10 4 10 6 0 11 -4 11 -10z"/>
<path d="M546 54 c-8 -21 -8 -34 2 -34 4 0 8 11 8 25 2 29 -1 32 -10 9z"/>
<path d="M18 53 c7 -3 16 -2 19 1 4 3 -2 6 -13 5 -11 0 -14 -3 -6 -6z"/>
<path d="M40 31 c0 -6 4 -13 10 -16 6 -3 7 1 4 9 -7 18 -14 21 -14 7z"/>
</g>
</svg>
